<svg width="30" height="22" viewBox="0 0 30 22" fill="none" xmlns="http://www.w3.org/2000/svg">
<path d="M27.5855 21.8661H2.41447C1.081 21.8661 0 20.7851 0 19.4516V2.55022C0 1.21674 1.081 0.135742 2.41447 0.135742H27.5855C28.919 0.135742 30 1.21674 30 2.55022V19.4516C30 20.7851 28.919 21.8661 27.5855 21.8661Z" fill="#7CAAE0"/>
<path d="M2.41447 21.8652H15.0361C9.87393 21.8652 5.6891 17.6804 5.6891 12.5182V0.134766H2.41447C1.081 0.134766 0 1.21576 0 2.5493V19.4507C0 20.7841 1.081 21.8652 2.41447 21.8652Z" fill="#779ECC"/>
<path d="M27.5861 17.0357V4.9633C26.2526 4.9633 25.1716 3.8823 25.1716 2.54883H4.82951C4.82951 3.8823 3.74852 4.9633 2.41504 4.9633V17.0357C3.74852 17.0357 4.82951 18.1167 4.82951 19.4502H25.1716C25.1716 18.1167 26.2526 17.0357 27.5861 17.0357Z" fill="#6A91BF"/>
<path d="M4.82951 19.4502H8.76736C6.87725 17.7398 5.68967 15.2675 5.68967 12.5177V2.54883H4.82951C4.82951 3.8823 3.74852 4.9633 2.41504 4.9633V17.0357C3.74852 17.0357 4.82951 18.1167 4.82951 19.4502Z" fill="#6087B6"/>
<path d="M15.0001 17.0363C18.3338 17.0363 21.0363 14.3338 21.0363 11.0001C21.0363 7.66637 18.3338 4.96387 15.0001 4.96387C11.6664 4.96387 8.96387 7.66637 8.96387 11.0001C8.96387 14.3338 11.6664 17.0363 15.0001 17.0363Z" fill="#7CAAE0"/>
<path d="M16.9165 11.597C17.1592 11.597 17.3559 11.4002 17.3559 11.1575C17.3559 10.9148 17.1592 10.7181 16.9165 10.7181H15.6465L17.2869 8.23945C17.4208 8.03706 17.3654 7.76443 17.163 7.63042C16.9606 7.49648 16.6879 7.55196 16.554 7.75435L15.0076 10.0908L13.4462 7.73847C13.312 7.53626 13.0393 7.48112 12.8371 7.61536C12.6349 7.7496 12.5798 8.0223 12.714 8.2245L14.3691 10.7179H13.0841C12.8414 10.7179 12.6446 10.9147 12.6446 11.1574C12.6446 11.4001 12.8414 11.5968 13.0841 11.5968H14.5668L14.5646 12.5287H13.0841C12.8414 12.5287 12.6446 12.7255 12.6446 12.9682C12.6446 13.2109 12.8414 13.4077 13.0841 13.4077H14.5626L14.5612 14.0167C14.5606 14.2594 14.757 14.4565 14.9997 14.4571H15.0007C15.243 14.4571 15.4396 14.261 15.4401 14.0187L15.4415 13.4077H16.9165C17.1593 13.4077 17.356 13.2109 17.356 12.9682C17.356 12.7255 17.1593 12.5287 16.9165 12.5287H15.4435L15.4457 11.5968H16.9165V11.597Z" fill="white"/>
<path d="M25.519 10.5332H23.1045C22.8617 10.5332 22.665 10.3364 22.665 10.0938C22.665 9.85105 22.8617 9.6543 23.1045 9.6543H25.519C25.7617 9.6543 25.9584 9.85105 25.9584 10.0938C25.9584 10.3364 25.7617 10.5332 25.519 10.5332Z" fill="#7CAAE0"/>
<path d="M25.519 12.3438H23.1045C22.8617 12.3438 22.665 12.147 22.665 11.9043C22.665 11.6616 22.8617 11.4648 23.1045 11.4648H25.519C25.7617 11.4648 25.9584 11.6616 25.9584 11.9043C25.9584 12.147 25.7617 12.3438 25.519 12.3438Z" fill="#7CAAE0"/>
<path d="M6.89689 10.5332H4.48242C4.23973 10.5332 4.04297 10.3364 4.04297 10.0938C4.04297 9.85105 4.23973 9.6543 4.48242 9.6543H6.89695C7.13965 9.6543 7.33641 9.85105 7.33641 10.0938C7.33641 10.3364 7.13959 10.5332 6.89689 10.5332Z" fill="#7CAAE0"/>
<path d="M6.89689 12.3438H4.48242C4.23973 12.3438 4.04297 12.147 4.04297 11.9043C4.04297 11.6616 4.23973 11.4648 4.48242 11.4648H6.89695C7.13965 11.4648 7.33641 11.6616 7.33641 11.9043C7.33641 12.147 7.13959 12.3438 6.89689 12.3438Z" fill="#7CAAE0"/>
</svg>
