<svg width="30" height="30" viewBox="0 0 30 30" fill="none" xmlns="http://www.w3.org/2000/svg">
<path d="M20.0371 16.8766C19.3024 16.8766 18.5811 16.7617 17.8975 16.5358C17.5625 16.4216 17.1507 16.5264 16.9463 16.7363L15.597 17.7549C14.0322 16.9196 13.0683 15.9561 12.2445 14.403L13.2331 13.0889C13.4899 12.8324 13.582 12.4577 13.4717 12.1062C13.2448 11.419 13.1295 10.6979 13.1295 9.96294C13.1296 9.43197 12.6976 9 12.1667 9H9.96291C9.43197 9 9 9.43197 9 9.96291C9 16.0488 13.9512 21 20.0371 21C20.5681 21 21 20.568 21 20.0371V17.8395C21 17.3086 20.568 16.8766 20.0371 16.8766Z" fill="#40AA54"/>
<circle cx="15" cy="15" r="14.5" stroke="#40AA54"/>
</svg>
