<svg width="30" height="30" viewBox="0 0 30 30" fill="none" xmlns="http://www.w3.org/2000/svg">
<g clip-path="url(#clip0_536_10660)">
<path d="M20.9911 11.585C20.9911 11.5713 21.0005 11.558 20.9999 11.5444L17.3379 15.073L20.9955 18.4888C20.9976 18.4644 20.9911 18.4398 20.9911 18.4148V11.585Z" fill="#40AA54"/>
<path d="M16.7792 15.6162L15.2842 17.0545C15.2086 17.1273 15.1109 17.1638 15.0131 17.1638C14.9174 17.1638 14.8217 17.1289 14.7466 17.0588L13.2557 15.6696L9.57422 19.2181C9.66374 19.2503 9.75982 19.2753 9.86044 19.2753H20.1659C20.3153 19.2753 20.4554 19.2298 20.5773 19.1619L16.7792 15.6162Z" fill="#40AA54"/>
<path d="M15.0084 16.2344L20.5971 10.8508C20.4706 10.7756 20.3233 10.7251 20.1654 10.7251H9.85998C9.65441 10.7251 9.46604 10.8049 9.31934 10.9267L15.0084 16.2344Z" fill="#40AA54"/>
<path d="M9 11.7163V18.4149C9 18.4918 9.01767 18.5659 9.03686 18.6368L12.6727 15.1356L9 11.7163Z" fill="#40AA54"/>
</g>
<circle cx="15" cy="15" r="14.5" stroke="#40AA54"/>
<defs>
<clipPath id="clip0_536_10660">
<rect width="12" height="12" fill="white" transform="translate(9 9)"/>
</clipPath>
</defs>
</svg>
