<svg width="24" height="24" viewBox="0 0 24 24" fill="none" xmlns="http://www.w3.org/2000/svg">
<path d="M19.3248 9.46875C19.3248 9.46875 18.7818 16.2037 18.4668 19.0407C18.3168 20.3957 17.4798 21.1898 16.1088 21.2148C13.4998 21.2618 10.8878 21.2648 8.27979 21.2098C6.96079 21.1828 6.13779 20.3788 5.99079 19.0478C5.67379 16.1858 5.13379 9.46875 5.13379 9.46875" stroke="#16162E" stroke-width="1.5" stroke-linecap="round" stroke-linejoin="round"/>
<path d="M20.708 6.24023H3.75" stroke="#16162E" stroke-width="1.5" stroke-linecap="round" stroke-linejoin="round"/>
<path d="M17.4406 6.23998C16.6556 6.23998 15.9796 5.68498 15.8256 4.91598L15.5826 3.69998C15.4326 3.13898 14.9246 2.75098 14.3456 2.75098H10.1126C9.53358 2.75098 9.02558 3.13898 8.87558 3.69998L8.63258 4.91598C8.47858 5.68498 7.80258 6.23998 7.01758 6.23998" stroke="#16162E" stroke-width="1.5" stroke-linecap="round" stroke-linejoin="round"/>
</svg>
