<svg width="14" height="14" viewBox="0 0 14 14" fill="none" xmlns="http://www.w3.org/2000/svg">
<g clip-path="url(#clip0_19228_4451)">
<path d="M12.9214 8.79507C12.7289 8.79507 12.5728 8.95115 12.5728 9.14374V12.2396C12.5721 12.8171 12.1042 13.285 11.5268 13.2856H1.74336C1.16587 13.285 0.698026 12.8171 0.697345 12.2396V3.15352C0.698026 2.57617 1.16587 2.10818 1.74336 2.1075H4.83919C5.03178 2.1075 5.18787 1.95142 5.18787 1.75883C5.18787 1.56638 5.03178 1.41016 4.83919 1.41016H1.74336C0.780972 1.41125 0.0010896 2.19113 0 3.15352V12.2397C0.0010896 13.2021 0.780972 13.982 1.74336 13.9831H11.5268C12.4891 13.982 13.269 13.2021 13.2701 12.2397V9.14374C13.2701 8.95115 13.114 8.79507 12.9214 8.79507Z" fill="#16162E"/>
<path d="M13.1322 0.512308C12.5194 -0.100457 11.526 -0.100457 10.9132 0.512308L4.69269 6.73285C4.65006 6.77548 4.61927 6.82832 4.6032 6.88634L3.78518 9.83957C3.75154 9.96065 3.78573 10.0903 3.87453 10.1793C3.96347 10.2681 4.09313 10.3022 4.21422 10.2687L7.16744 9.45058C7.22547 9.43451 7.27831 9.40373 7.32094 9.3611L13.5413 3.14043C14.1532 2.52725 14.1532 1.53463 13.5413 0.921454L13.1322 0.512308ZM5.45241 6.95948L10.5434 1.86832L12.1853 3.51021L7.09417 8.60138L5.45241 6.95948ZM5.12444 7.6176L6.43619 8.92948L4.62173 9.4322L5.12444 7.6176ZM13.0483 2.64738L12.6785 3.01717L11.0365 1.37514L11.4064 1.00535C11.7468 0.664989 12.2987 0.664989 12.639 1.00535L13.0483 1.4145C13.3881 1.75527 13.3881 2.30675 13.0483 2.64738Z" fill="#16162E"/>
</g>
<defs>
<clipPath id="clip0_19228_4451">
<rect width="14" height="14" fill="white"/>
</clipPath>
</defs>
</svg>
