<svg width="24" height="24" viewBox="0 0 24 24" fill="none" xmlns="http://www.w3.org/2000/svg">
<path d="M10.1169 17.9867H2.88281" stroke="white" stroke-width="1.5" stroke-linecap="round" stroke-linejoin="round"/>
<path fill-rule="evenodd" clip-rule="evenodd" d="M21.1174 17.9864C21.1174 19.577 19.828 20.8664 18.2374 20.8664C16.6468 20.8664 15.3574 19.577 15.3574 17.9864C15.3574 16.3947 16.6468 15.1064 18.2374 15.1064C19.828 15.1064 21.1174 16.3947 21.1174 17.9864Z" stroke="white" stroke-width="1.5" stroke-linecap="round" stroke-linejoin="round"/>
<path d="M13.8828 6.26206H21.1181" stroke="white" stroke-width="1.5" stroke-linecap="round" stroke-linejoin="round"/>
<path fill-rule="evenodd" clip-rule="evenodd" d="M2.88281 6.26184C2.88281 7.8536 4.17222 9.14184 5.76281 9.14184C7.3534 9.14184 8.64281 7.8536 8.64281 6.26184C8.64281 4.67125 7.3534 3.38184 5.76281 3.38184C4.17222 3.38184 2.88281 4.67125 2.88281 6.26184Z" stroke="white" stroke-width="1.5" stroke-linecap="round" stroke-linejoin="round"/>
</svg>
