<svg width="60" height="60" viewBox="0 0 60 60" fill="none" xmlns="http://www.w3.org/2000/svg">
<path d="M30 0.5C46.2239 0.5 59.5 13.7761 59.5 30C59.5 46.2239 46.2239 59.5 30 59.5C13.7761 59.5 0.5 46.2237 0.5 30C0.5 13.7763 13.7761 0.5 30 0.5Z" stroke="#DD4B39"/>
<path d="M42.2706 25.4023V28.1314H44.9995V30.8604H42.2706V33.5895H39.5415V30.8604H36.8125V28.1314H39.5415V25.4023H42.2706Z" fill="#DD4B39"/>
<path d="M17.7094 36.3181C14.0707 32.6795 14.0707 26.3118 17.8609 22.6733C20.59 19.9442 24.5317 19.3379 28.0188 20.7023L29.3833 21.4604L30.8994 22.5217L28.4737 24.9475L27.564 24.3411C25.4415 22.9767 22.4092 23.2798 20.4384 25.2508C18.1642 27.525 18.0126 31.6185 20.4384 34.0442C22.7126 36.47 26.8061 36.47 28.9286 34.0442C29.535 33.4379 30.1415 32.5281 30.2931 31.6185V31.3152H24.8352V28.2831H33.4769L33.6285 29.0411V31.1637C33.4769 33.1346 32.7188 35.1056 31.3542 36.47C27.7157 39.9568 21.348 39.9568 17.7094 36.3181Z" fill="#DD4B39"/>
</svg>
