<svg width="30" height="30" viewBox="0 0 30 30" fill="none" xmlns="http://www.w3.org/2000/svg">
<path d="M15 0C23.25 0 30 6.75 30 15C30 23.25 23.25 30 15 30C6.75 30 0 23.2499 0 15C0 6.7501 6.75 0 15 0Z" fill="#DD4B39"/>
<path d="M21.5452 12.8809V14.3363H23.0005V15.7918H21.5452V17.2472H20.0897V15.7918H18.6343V14.3363H20.0897V12.8809H21.5452Z" fill="white"/>
<path d="M8.44548 18.7028C6.50491 16.7622 6.50491 13.3662 8.5263 11.4257C9.98175 9.97025 12.084 9.64687 13.9437 10.3746L14.6714 10.7788L15.48 11.3449L14.1863 12.6386L13.7012 12.3152C12.5692 11.5875 10.952 11.7492 9.90093 12.8003C8.68804 14.0132 8.60722 16.1964 9.90093 17.4901C11.1138 18.7838 13.297 18.7838 14.4289 17.4901C14.7523 17.1667 15.0758 16.6815 15.1566 16.1964V16.0346H12.2458V14.4175H16.8546L16.9354 14.8218V15.9538C16.8546 17.0049 16.4503 18.0561 15.7226 18.7838C13.7821 20.6433 10.3861 20.6433 8.44548 18.7028Z" fill="white"/>
</svg>
