<svg width="26" height="26" viewBox="0 0 26 26" fill="none" xmlns="http://www.w3.org/2000/svg">
<circle cx="11" cy="9" r="4" fill="#40AA54"/>
<path d="M24.4 11.392C24.3993 11.3914 24.3988 11.3907 24.3982 11.3902L14.6081 1.6004C14.1908 1.18292 13.636 0.953125 13.0458 0.953125C12.4557 0.953125 11.9009 1.18292 11.4834 1.6004L1.69839 11.3852C1.69509 11.3885 1.69162 11.392 1.6885 11.3953C0.831567 12.2572 0.833032 13.6555 1.69271 14.5152C2.08548 14.9082 2.60403 15.1356 3.15866 15.1596C3.18136 15.1618 3.20407 15.1629 3.22696 15.1629H3.61697V22.3674C3.61697 23.7932 4.77713 24.9532 6.20298 24.9532H10.0332C10.4216 24.9532 10.7363 24.6382 10.7363 24.25V18.6016C10.7363 17.951 11.2657 17.4218 11.9162 17.4218H14.1754C14.826 17.4218 15.3552 17.951 15.3552 18.6016V24.25C15.3552 24.6382 15.6699 24.9532 16.0583 24.9532H19.8885C21.3145 24.9532 22.4745 23.7932 22.4745 22.3674V15.1629H22.8363C23.4263 15.1629 23.9811 14.9331 24.3988 14.5154C25.2593 13.6544 25.2597 12.2535 24.4 11.392ZM23.4043 13.5211C23.2525 13.6729 23.0507 13.7566 22.8363 13.7566H21.7714C21.383 13.7566 21.0682 14.0714 21.0682 14.4597V22.3674C21.0682 23.0177 20.5391 23.5469 19.8885 23.5469H16.7614V18.6016C16.7614 17.1758 15.6014 16.0156 14.1754 16.0156H11.9162C10.4902 16.0156 9.33006 17.1758 9.33006 18.6016V23.5469H6.20298C5.55259 23.5469 5.02323 23.0177 5.02323 22.3674V14.4597C5.02323 14.0714 4.70847 13.7566 4.3201 13.7566H3.27347C3.26248 13.7559 3.25168 13.7553 3.24051 13.7552C3.03103 13.7515 2.83456 13.6684 2.68734 13.521C2.37423 13.2078 2.37423 12.6983 2.68734 12.385C2.68753 12.385 2.68753 12.3848 2.68771 12.3846L2.68826 12.3841L12.478 2.59467C12.6296 2.44287 12.8312 2.35938 13.0458 2.35938C13.2602 2.35938 13.4618 2.44287 13.6136 2.59467L23.4012 12.382C23.4027 12.3835 23.4043 12.385 23.4058 12.3864C23.7172 12.7001 23.7167 13.2086 23.4043 13.5211Z" fill="#16162E" stroke="#16162E" stroke-width="0.3"/>
</svg>
