<svg width="24" height="24" viewBox="0 0 24 24" fill="none" xmlns="http://www.w3.org/2000/svg">
<g clip-path="url(#clip0_545_849)">
<path d="M12 0C5.36255 0 0 5.35636 0 12C0 18.6436 5.35636 24 12 24C18.6436 24 24 18.6436 24 12C24 5.35636 18.6375 0 12 0ZM12 22.3955C6.24095 22.3955 1.60445 17.759 1.60445 12C1.60445 6.2409 6.24099 1.60441 12 1.60441C17.759 1.60441 22.3955 6.2409 22.3955 12C22.3955 17.759 17.7591 22.3955 12 22.3955Z" fill="white" stroke="white" stroke-width="0.01"/>
<path d="M17.7589 8.48018C17.4417 8.16287 16.9597 8.16287 16.6364 8.48013L10.4808 14.6357L7.36336 11.5183C7.04614 11.2011 6.56415 11.2011 6.24084 11.5183C5.92363 11.8355 5.92363 12.3175 6.24084 12.6408L9.91951 16.3195C10.0781 16.4781 10.2367 16.5574 10.4808 16.5574C10.7187 16.5574 10.8834 16.4781 11.0421 16.3195L17.7589 9.60269C18.0761 9.28547 18.0761 8.80358 17.7589 8.48018Z" fill="white" stroke="white" stroke-width="0.01"/>
</g>
<defs>
<clipPath id="clip0_545_849">
<rect width="24" height="24" fill="white"/>
</clipPath>
</defs>
</svg>
