<svg width="24" height="26" viewBox="0 0 24 26" fill="none" xmlns="http://www.w3.org/2000/svg">
<path fill-rule="evenodd" clip-rule="evenodd" d="M18.149 10.2732C18.1409 10.2401 18.1292 10.2076 18.1151 10.1759C18.0542 10.0448 17.9378 9.9469 17.8014 9.91038L12.6332 7.36467C12.4995 7.29902 12.3343 7.29902 12.2008 7.36467L6.96463 9.94183C6.79979 10.0214 6.69212 10.1877 6.68401 10.3758L6.68359 16.8663C6.68359 17.0591 6.79418 17.2368 6.9638 17.3189L12.1813 19.8868L12.1894 19.8946L12.2168 19.9039L12.2534 19.9286H12.2819L12.3083 19.9419H12.3326L12.3484 19.9469H12.3808C12.3943 19.948 12.4072 19.9491 12.4189 19.9491C12.4307 19.9491 12.4484 19.9491 12.4692 19.9463C12.4854 19.9459 12.5026 19.9431 12.5199 19.9387L12.5392 19.9336C12.5428 19.9326 12.5457 19.9315 12.5494 19.9305H12.5569L12.5889 19.9174C12.597 19.9149 12.6097 19.9098 12.6249 19.9026C12.633 19.8994 12.6411 19.8954 12.6492 19.8902L17.8895 17.3103C18.059 17.2267 18.1687 17.0489 18.1687 16.8587V10.2832L18.149 10.2732ZM11.921 13.2947V18.6413L7.67281 16.5501V11.203L11.921 13.2947ZM14.7038 12.4103L12.9099 13.2944V18.641L17.1738 16.5394V11.1922L15.693 11.9215V14.677C15.693 14.9544 15.4712 15.179 15.1987 15.179C14.9255 15.179 14.7038 14.9542 14.7038 14.677V12.4103ZM11.1762 8.98535L12.4159 8.37404L16.5251 10.3971L15.2853 11.0084L11.1762 8.98535ZM12.4152 12.4205L14.1509 11.5664L10.0422 9.54315L8.30605 10.3976L12.4152 12.4205Z" fill="white"/>
<path d="M18.1151 10.1759L18.2977 10.0944L18.2965 10.0917L18.1151 10.1759ZM18.149 10.2732L17.9547 10.3208L17.9766 10.4105L18.0592 10.4519L18.149 10.2732ZM17.8014 9.91038L17.713 10.0898L17.7307 10.0985L17.7497 10.1036L17.8014 9.91038ZM12.6332 7.36467L12.7216 7.18525L12.7214 7.18515L12.6332 7.36467ZM12.2008 7.36467L12.1125 7.1852L12.1125 7.18522L12.2008 7.36467ZM6.96463 9.94183L7.05159 10.1219L7.05295 10.1213L6.96463 9.94183ZM6.68401 10.3758L6.48401 10.3672L6.48401 10.3758L6.68401 10.3758ZM6.68359 16.8663L6.48359 16.8663V16.8663H6.68359ZM6.9638 17.3189L7.05212 17.1395L7.05094 17.1389L6.9638 17.3189ZM12.1813 19.8868L12.32 19.7427L12.2976 19.7211L12.2696 19.7073L12.1813 19.8868ZM12.1894 19.8946L12.0506 20.0386L12.0829 20.0697L12.1253 20.084L12.1894 19.8946ZM12.2168 19.9039L12.3287 19.7381L12.3064 19.7231L12.281 19.7144L12.2168 19.9039ZM12.2534 19.9286L12.1415 20.0943L12.1922 20.1286H12.2534V19.9286ZM12.2819 19.9286L12.3719 19.75L12.3294 19.7286H12.2819V19.9286ZM12.3083 19.9419L12.2183 20.1205L12.2608 20.1419H12.3083V19.9419ZM12.3326 19.9419L12.3937 19.7514L12.3639 19.7419H12.3326V19.9419ZM12.3484 19.9469L12.2873 20.1374L12.3171 20.1469H12.3484V19.9469ZM12.3808 19.9469L12.3964 19.7475L12.3886 19.7469H12.3808V19.9469ZM12.4692 19.9463L12.464 19.7464L12.4534 19.7466L12.443 19.748L12.4692 19.9463ZM12.5199 19.9387L12.5697 20.1324L12.5706 20.1322L12.5199 19.9387ZM12.5392 19.9336L12.59 20.1272L12.5965 20.1253L12.5392 19.9336ZM12.5494 19.9305V19.7305H12.5217L12.4951 19.738L12.5494 19.9305ZM12.5569 19.9305V20.1305H12.5962L12.6326 20.1156L12.5569 19.9305ZM12.5889 19.9174L12.5293 19.7265L12.5211 19.729L12.5132 19.7323L12.5889 19.9174ZM12.6249 19.9026L12.5519 19.7159L12.5394 19.7218L12.6249 19.9026ZM12.6492 19.8902L12.5609 19.7107L12.5501 19.716L12.5401 19.7225L12.6492 19.8902ZM17.8895 17.3103L17.9779 17.4897L17.978 17.4896L17.8895 17.3103ZM18.1687 10.2832H18.3687V10.1598L18.2585 10.1044L18.1687 10.2832ZM11.921 18.6413L11.8327 18.8208L12.121 18.9627V18.6413H11.921ZM11.921 13.2947H12.121V13.1702L12.0094 13.1153L11.921 13.2947ZM7.67281 16.5501H7.47281V16.6745L7.58448 16.7295L7.67281 16.5501ZM7.67281 11.203L7.76116 11.0236L7.47281 10.8816V11.203H7.67281ZM12.9099 13.2944L12.8214 13.115L12.7099 13.17V13.2944H12.9099ZM14.7038 12.4103H14.9038V12.0888L14.6153 12.2309L14.7038 12.4103ZM12.9099 18.641H12.7099V18.9625L12.9983 18.8204L12.9099 18.641ZM17.1738 16.5394L17.2623 16.7188L17.3738 16.6638V16.5394H17.1738ZM17.1738 11.1922H17.3738V10.8707L17.0855 11.0127L17.1738 11.1922ZM15.693 11.9215L15.6046 11.742L15.493 11.797V11.9215H15.693ZM12.4159 8.37404L12.5043 8.19461L12.4159 8.15108L12.3275 8.19467L12.4159 8.37404ZM11.1762 8.98535L11.0877 8.80597L10.7237 8.98549L11.0879 9.16478L11.1762 8.98535ZM16.5251 10.3971L16.6135 10.5765L16.9776 10.397L16.6134 10.2177L16.5251 10.3971ZM15.2853 11.0084L15.197 11.1878L15.2854 11.2314L15.3738 11.1878L15.2853 11.0084ZM14.1509 11.5664L14.2392 11.7459L14.6037 11.5665L14.2392 11.387L14.1509 11.5664ZM12.4152 12.4205L12.3268 12.5999L12.4152 12.6434L12.5035 12.5999L12.4152 12.4205ZM10.0422 9.54315L10.1305 9.36373L10.0422 9.32023L9.95384 9.36371L10.0422 9.54315ZM8.30605 10.3976L8.21773 10.2182L7.85318 10.3976L8.21772 10.5771L8.30605 10.3976ZM17.9324 10.2575C17.9425 10.28 17.9499 10.3011 17.9547 10.3208L18.3432 10.2257C18.3318 10.1791 18.3159 10.1351 18.2977 10.0944L17.9324 10.2575ZM17.7497 10.1036C17.828 10.1245 17.8974 10.182 17.9337 10.2602L18.2965 10.0917C18.211 9.90764 18.0475 9.76925 17.8531 9.71719L17.7497 10.1036ZM12.5448 7.54408L17.713 10.0898L17.8898 9.73096L12.7216 7.18525L12.5448 7.54408ZM12.2891 7.54413C12.3668 7.50589 12.4669 7.50582 12.545 7.54418L12.7214 7.18515C12.5321 7.09221 12.3017 7.09215 12.1125 7.1852L12.2891 7.54413ZM7.05295 10.1213L12.2891 7.54411L12.1125 7.18522L6.87631 9.76239L7.05295 10.1213ZM6.88382 10.3844C6.88887 10.2675 6.95528 10.1684 7.05158 10.1219L6.87768 9.76172C6.64431 9.87439 6.49537 10.108 6.4842 10.3672L6.88382 10.3844ZM6.88359 16.8663L6.88401 10.3758L6.48401 10.3758L6.48359 16.8663L6.88359 16.8663ZM7.05094 17.1389C6.95175 17.0909 6.88359 16.984 6.88359 16.8663H6.48359C6.48359 17.1342 6.63661 17.3827 6.87665 17.4989L7.05094 17.1389ZM12.2696 19.7073L7.05212 17.1395L6.87548 17.4983L12.093 20.0662L12.2696 19.7073ZM12.3281 19.7506L12.32 19.7427L12.0425 20.0308L12.0506 20.0386L12.3281 19.7506ZM12.281 19.7144L12.2535 19.7051L12.1253 20.084L12.1527 20.0933L12.281 19.7144ZM12.3653 19.7628L12.3287 19.7381L12.1049 20.0696L12.1415 20.0943L12.3653 19.7628ZM12.2819 19.7286H12.2534V20.1286H12.2819V19.7286ZM12.3983 19.7633L12.3719 19.75L12.1919 20.1072L12.2183 20.1205L12.3983 19.7633ZM12.3326 19.7419H12.3083V20.1419H12.3326V19.7419ZM12.4095 19.7565L12.3937 19.7514L12.2715 20.1323L12.2873 20.1374L12.4095 19.7565ZM12.3808 19.7469H12.3484V20.1469H12.3808V19.7469ZM12.4189 19.7491C12.4189 19.7491 12.4185 19.7491 12.4175 19.749C12.4164 19.749 12.415 19.7489 12.413 19.7488C12.4086 19.7485 12.4039 19.7481 12.3964 19.7475L12.3653 20.1463C12.376 20.1472 12.3977 20.1491 12.4189 20.1491V19.7491ZM12.443 19.748C12.4363 19.7489 12.43 19.7491 12.4189 19.7491V20.1491C12.4314 20.1491 12.4605 20.1492 12.4953 20.1446L12.443 19.748ZM12.4701 19.745C12.4641 19.7465 12.462 19.7464 12.464 19.7464L12.4744 20.1462C12.5087 20.1453 12.5412 20.1397 12.5697 20.1324L12.4701 19.745ZM12.4885 19.7402L12.4692 19.7452L12.5706 20.1322L12.5899 20.1271L12.4885 19.7402ZM12.4951 19.738C12.4896 19.7396 12.485 19.741 12.4829 19.7417C12.4801 19.7426 12.4811 19.7423 12.482 19.742L12.5965 20.1253C12.6009 20.124 12.6051 20.1226 12.6056 20.1224C12.6067 20.1221 12.6055 20.1224 12.6037 20.123L12.4951 19.738ZM12.5569 19.7305H12.5494V20.1305H12.5569V19.7305ZM12.5132 19.7323L12.4812 19.7453L12.6326 20.1156L12.6646 20.1025L12.5132 19.7323ZM12.5394 19.7218C12.5347 19.724 12.5311 19.7256 12.5287 19.7266C12.5259 19.7277 12.5263 19.7274 12.5293 19.7265L12.6486 20.1083C12.6689 20.1019 12.6908 20.0926 12.7104 20.0834L12.5394 19.7218ZM12.5401 19.7225C12.5445 19.7197 12.5487 19.7176 12.5521 19.7163L12.6976 20.0889C12.7172 20.0813 12.7377 20.0712 12.7583 20.0578L12.5401 19.7225ZM17.8012 17.1308L12.5609 19.7107L12.7375 20.0696L17.9779 17.4897L17.8012 17.1308ZM17.9687 16.8587C17.9687 16.9736 17.9014 17.0814 17.801 17.1309L17.978 17.4896C18.2165 17.372 18.3687 17.1242 18.3687 16.8587H17.9687ZM17.9687 10.2832V16.8587H18.3687V10.2832H17.9687ZM18.0592 10.4519L18.0789 10.4619L18.2585 10.1044L18.2387 10.0945L18.0592 10.4519ZM12.121 18.6413V13.2947H11.721V18.6413H12.121ZM7.58448 16.7295L11.8327 18.8208L12.0093 18.4619L7.76114 16.3706L7.58448 16.7295ZM7.47281 11.203V16.5501H7.87281V11.203H7.47281ZM12.0094 13.1153L7.76116 11.0236L7.58447 11.3825L11.8327 13.4741L12.0094 13.1153ZM12.9983 13.4738L14.7922 12.5897L14.6153 12.2309L12.8214 13.115L12.9983 13.4738ZM13.1099 18.641V13.2944H12.7099V18.641H13.1099ZM17.0854 16.36L12.8214 18.4616L12.9983 18.8204L17.2623 16.7188L17.0854 16.36ZM16.9738 11.1922V16.5394H17.3738V11.1922H16.9738ZM15.7814 12.1009L17.2622 11.3716L17.0855 11.0127L15.6046 11.742L15.7814 12.1009ZM15.893 14.677V11.9215H15.493V14.677H15.893ZM15.1987 15.379C15.5844 15.379 15.893 15.0621 15.893 14.677H15.493C15.493 14.8467 15.358 14.979 15.1987 14.979V15.379ZM14.5038 14.677C14.5038 15.062 14.8125 15.379 15.1987 15.379V14.979C15.0386 14.979 14.9038 14.8463 14.9038 14.677H14.5038ZM14.5038 12.4103V14.677H14.9038V12.4103H14.5038ZM12.3275 8.19467L11.0877 8.80597L11.2647 9.16473L12.5044 8.55342L12.3275 8.19467ZM16.6134 10.2177L12.5043 8.19461L12.3276 8.55348L16.4367 10.5765L16.6134 10.2177ZM15.3738 11.1878L16.6135 10.5765L16.4366 10.2177L15.1969 10.829L15.3738 11.1878ZM11.0879 9.16478L15.197 11.1878L15.3737 10.829L11.2645 8.80592L11.0879 9.16478ZM14.0626 11.387L12.3269 12.241L12.5035 12.5999L14.2392 11.7459L14.0626 11.387ZM9.9538 9.72258L14.0625 11.7458L14.2392 11.387L10.1305 9.36373L9.9538 9.72258ZM8.39437 10.5771L10.1305 9.72259L9.95384 9.36371L8.21773 10.2182L8.39437 10.5771ZM12.5035 12.241L8.39438 10.2182L8.21772 10.5771L12.3268 12.5999L12.5035 12.241Z" fill="white"/>
<path d="M9.87313 1.13159C9.60707 1.34506 9.7211 1.60808 10.219 1.93972C10.7321 2.2828 10.7397 2.2523 10.1316 2.35904C7.5166 2.81647 4.8332 4.53948 3.11141 6.86477C2.6211 7.53186 2.52988 7.85588 2.80354 8.00073C3.08861 8.15702 3.24824 8.09222 3.5029 7.71865C5.04985 5.43147 7.17453 3.94862 9.91874 3.23198C10.869 2.9842 10.8918 2.99563 10.4927 3.5255C10.1468 3.98293 10.1088 4.18115 10.3254 4.37937C10.6067 4.63096 10.7891 4.50898 11.4201 3.62079C12.3095 2.37047 12.3095 2.43528 11.4163 1.8063C10.105 0.883811 10.1544 0.902872 9.87313 1.13159Z" fill="white" stroke="white" stroke-width="0.4"/>
<path d="M15.8479 2.96894C15.5363 3.31201 15.9962 3.80376 16.3877 3.54454C16.5853 3.41494 16.6309 3.06805 16.4751 2.91176C16.3345 2.77072 15.9962 2.80121 15.8479 2.96894Z" fill="white" stroke="white" stroke-width="0.4"/>
<path d="M17.6576 3.85685C17.3991 4.2533 17.897 4.69167 18.2467 4.37909C18.4291 4.21137 18.4329 3.94834 18.2505 3.78443C18.0491 3.60145 17.8058 3.62814 17.6576 3.85685Z" fill="white" stroke="white" stroke-width="0.4"/>
<path d="M19.3181 4.96987C19.0026 5.28627 19.4283 5.85044 19.8008 5.60647C20.0631 5.43493 20.1049 5.29389 19.9566 5.06899C19.8198 4.86314 19.4777 4.80977 19.3181 4.96987Z" fill="white" stroke="white" stroke-width="0.4"/>
<path d="M20.7133 6.44544C20.3903 6.77327 20.7932 7.30694 21.1922 7.08204C21.4355 6.94481 21.4887 6.67035 21.3139 6.47213C21.1504 6.29678 20.8768 6.28534 20.7133 6.44544Z" fill="white" stroke="white" stroke-width="0.4"/>
<path d="M21.9072 8.05447C21.645 8.1612 21.6488 8.37848 21.93 8.97696C23.0361 11.3404 23.2565 14.0621 22.5382 16.5818C22.3481 17.2413 21.4359 19.2082 21.1395 19.5856L20.995 19.7686L20.9418 19.1168C20.8696 18.2514 20.6149 17.9579 20.2159 18.2819L20.041 18.423L20.1702 19.4865C20.3755 21.2095 20.2463 21.0952 21.8046 20.9008C23.0437 20.7521 23.1995 20.6835 23.1653 20.3328C23.1311 19.9897 22.9791 19.9325 22.3329 20.024C21.6488 20.1231 21.6716 20.1422 21.9871 19.6962C24.0319 16.8182 24.3246 11.9503 22.6484 8.61483C22.3443 8.00872 22.2303 7.92486 21.9072 8.05447Z" fill="white" stroke="white" stroke-width="0.4"/>
<path d="M2.18013 8.46969C2.0129 8.56498 2.00529 8.94237 2.16493 9.10628C2.41199 9.35025 2.82628 9.17108 2.82628 8.82038C2.82628 8.443 2.51461 8.27146 2.18013 8.46969Z" fill="white" stroke="white" stroke-width="0.4"/>
<path d="M1.39332 10.4859C1.13486 10.8785 1.62897 11.3245 1.97485 11.012C2.14209 10.8633 2.17249 10.524 2.03186 10.383C1.86842 10.2191 1.53015 10.2763 1.39332 10.4859Z" fill="white" stroke="white" stroke-width="0.4"/>
<path d="M1.10084 12.423C0.819579 12.7318 1.17686 13.2235 1.55694 13.0482C1.7964 12.9414 1.86101 12.6898 1.70898 12.4611C1.56075 12.2324 1.28708 12.2172 1.10084 12.423Z" fill="white" stroke="white" stroke-width="0.4"/>
<path d="M1.22589 14.3095C1.03965 14.3819 0.967433 14.7174 1.09666 14.9156C1.2449 15.1443 1.62498 15.1634 1.73901 14.9461C1.95186 14.5497 1.62498 14.1456 1.22589 14.3095Z" fill="white" stroke="white" stroke-width="0.4"/>
<path d="M2.17288 17.9005C1.90682 18.1978 1.4013 20.2639 1.55334 20.4354C1.8308 20.7404 2.20708 20.607 2.30591 20.1648C2.33631 20.039 2.39333 19.8065 2.43514 19.6425L2.51115 19.3528L2.95585 20.0237C4.518 22.3948 7.1634 24.1711 10.0102 24.7582L10.6526 24.8916L10.797 24.7124C11.1011 24.3351 10.9224 24.1216 10.1813 23.9691C7.44846 23.4049 5.08433 21.7734 3.42716 19.3071C3.06608 18.7734 3.06608 18.7734 3.73123 18.9831C4.38497 19.1889 4.60162 19.1813 4.75366 18.945C4.9285 18.6743 4.74986 18.4075 4.30896 18.2969C4.13032 18.2512 3.6248 18.1101 3.1839 17.9882C2.23749 17.7213 2.32871 17.7289 2.17288 17.9005Z" fill="white" stroke="white" stroke-width="0.4"/>
<path d="M17.4367 22.9819C17.2961 23.1953 17.3759 23.4202 17.6382 23.5613C17.9841 23.7481 18.3527 23.1687 18.0715 22.8866C17.9118 22.7265 17.5698 22.776 17.4367 22.9819Z" fill="white" stroke="white" stroke-width="0.4"/>
<path d="M15.7493 23.6523C15.354 23.8429 15.6087 24.5672 16.0154 24.4185C16.384 24.2889 16.4677 23.8848 16.1712 23.6752C15.9774 23.538 15.9774 23.538 15.7493 23.6523Z" fill="white" stroke="white" stroke-width="0.4"/>
<path d="M13.7008 24.1862C13.3549 24.6322 13.8566 25.1391 14.2519 24.7427C14.5217 24.4721 14.3659 24.0909 13.982 24.0909C13.868 24.0909 13.7388 24.1328 13.7008 24.1862Z" fill="white" stroke="white" stroke-width="0.4"/>
<path d="M11.7011 24.3199C11.5111 24.5105 11.5073 24.7164 11.6897 24.8803C11.8721 25.0442 12.104 25.0404 12.2598 24.8651C12.6209 24.4686 12.0812 23.9387 11.7011 24.3199Z" fill="white" stroke="white" stroke-width="0.4"/>
</svg>
