<svg width="24" height="24" viewBox="0 0 24 24" fill="none" xmlns="http://www.w3.org/2000/svg">
<path d="M19.4596 18.5884C19.247 18.5885 19.0393 18.5255 18.8625 18.4075C18.6858 18.2895 18.548 18.1217 18.4666 17.9254C18.3853 17.729 18.3639 17.513 18.4054 17.3045C18.4468 17.0961 18.5491 16.9046 18.6994 16.7543C18.8496 16.604 19.0411 16.5016 19.2495 16.4601C19.4579 16.4186 19.674 16.4399 19.8704 16.5212C20.0667 16.6025 20.2346 16.7402 20.3526 16.917C20.4707 17.0937 20.5337 17.3014 20.5337 17.5139C20.5335 17.7988 20.4202 18.0719 20.2189 18.2733C20.0175 18.4748 19.7444 18.5881 19.4596 18.5884ZM19.4596 17.0884C19.3753 17.0884 19.293 17.1133 19.2229 17.1601C19.1528 17.2068 19.0982 17.2733 19.0659 17.3512C19.0336 17.429 19.0252 17.5146 19.0416 17.5973C19.058 17.6799 19.0986 17.7558 19.1581 17.8154C19.2177 17.875 19.2936 17.9155 19.3763 17.9319C19.4589 17.9484 19.5445 17.9399 19.6224 17.9076C19.7002 17.8754 19.7667 17.8207 19.8135 17.7506C19.8602 17.6806 19.8852 17.5982 19.8851 17.5139C19.885 17.4011 19.8401 17.2929 19.7604 17.2132C19.6806 17.1334 19.5724 17.0885 19.4596 17.0884Z" fill="white"/>
<path d="M23.0268 17.8375H21.4733C21.3873 17.8375 21.3048 17.8033 21.244 17.7425C21.1832 17.6816 21.149 17.5991 21.149 17.5131C21.149 17.4271 21.1832 17.3446 21.244 17.2838C21.3048 17.223 21.3873 17.1888 21.4733 17.1888H22.7025V11.2566L20.045 7.78341H16.216V17.1888H17.4452C17.5312 17.1888 17.6137 17.223 17.6745 17.2838C17.7354 17.3446 17.7695 17.4271 17.7695 17.5131C17.7695 17.5991 17.7354 17.6816 17.6745 17.7425C17.6137 17.8033 17.5312 17.8375 17.4452 17.8375H15.8917C15.8057 17.8375 15.7232 17.8033 15.6624 17.7425C15.6016 17.6816 15.5674 17.5991 15.5674 17.5131V7.45909C15.5674 7.37307 15.6016 7.29058 15.6624 7.22976C15.7232 7.16894 15.8057 7.13477 15.8917 7.13477H20.2052C20.255 7.13476 20.3042 7.14623 20.3488 7.16828C20.3935 7.19032 20.4324 7.22236 20.4627 7.2619L23.2843 10.9495C23.3277 11.0061 23.3512 11.0754 23.3512 11.1467V17.5131C23.3512 17.5991 23.317 17.6816 23.2562 17.7425C23.1953 17.8033 23.1128 17.8375 23.0268 17.8375Z" fill="white"/>
<path d="M15.7083 18H9.53917C9.46181 18 9.38762 17.9658 9.33293 17.9048C9.27823 17.8439 9.2475 17.7613 9.2475 17.6751C9.2475 17.5889 9.27823 17.5063 9.33293 17.4453C9.38762 17.3844 9.46181 17.3502 9.53917 17.3502H15.4167V5.64984H2.58333V17.3502H4.91667C4.99402 17.3502 5.06821 17.3844 5.12291 17.4453C5.1776 17.5063 5.20833 17.5889 5.20833 17.6751C5.20833 17.7613 5.1776 17.8439 5.12291 17.9048C5.06821 17.9658 4.99402 18 4.91667 18H2.29167C2.21431 18 2.14013 17.9658 2.08543 17.9048C2.03073 17.8439 2 17.7613 2 17.6751V5.32492C2 5.23874 2.03073 5.1561 2.08543 5.09517C2.14013 5.03423 2.21431 5 2.29167 5H15.7083C15.7857 5 15.8599 5.03423 15.9146 5.09517C15.9693 5.1561 16 5.23874 16 5.32492V17.6751C16 17.7613 15.9693 17.8439 15.9146 17.9048C15.8599 17.9658 15.7857 18 15.7083 18Z" fill="white"/>
<path d="M15.7083 14H2.29167C2.21431 14 2.14013 13.9473 2.08543 13.8536C2.03073 13.7598 2 13.6326 2 13.5C2 13.3674 2.03073 13.2402 2.08543 13.1464C2.14013 13.0527 2.21431 13 2.29167 13H15.7083C15.7857 13 15.8599 13.0527 15.9146 13.1464C15.9693 13.2402 16 13.3674 16 13.5C16 13.6326 15.9693 13.7598 15.9146 13.8536C15.8599 13.9473 15.7857 14 15.7083 14Z" fill="white"/>
<path d="M7.3374 19.8512C6.87506 19.8512 6.42311 19.714 6.03872 19.4571C5.65433 19.2002 5.35474 18.8351 5.17786 18.4079C5.00097 17.9807 4.95472 17.5107 5.04496 17.0572C5.1352 16.6038 5.35787 16.1873 5.68482 15.8604C6.01177 15.5335 6.42831 15.3109 6.88178 15.2207C7.33524 15.1305 7.80527 15.1768 8.23241 15.3538C8.65956 15.5307 9.02464 15.8303 9.2815 16.2148C9.53836 16.5992 9.67545 17.0512 9.67545 17.5135C9.67477 18.1334 9.42821 18.7276 8.98988 19.1659C8.55155 19.6042 7.95725 19.8506 7.3374 19.8512ZM7.3374 15.8241C7.00336 15.8242 6.67684 15.9233 6.39912 16.1089C6.12141 16.2945 5.90496 16.5583 5.77716 16.867C5.64936 17.1756 5.61594 17.5152 5.68112 17.8428C5.7463 18.1704 5.90717 18.4713 6.14337 18.7075C6.37957 18.9437 6.68051 19.1046 7.00812 19.1698C7.33574 19.235 7.67533 19.2016 7.98396 19.0738C8.29259 18.9459 8.55639 18.7295 8.74201 18.4518C8.92763 18.1741 9.02674 17.8475 9.02681 17.5135C9.02629 17.0656 8.84812 16.6363 8.5314 16.3196C8.21468 16.0029 7.78527 15.8249 7.3374 15.8244V15.8241Z" fill="white"/>
<path d="M7.33992 18.5535C7.13415 18.5535 6.93303 18.4924 6.76197 18.378C6.59091 18.2637 6.45761 18.1011 6.37891 17.911C6.30021 17.7209 6.27965 17.5117 6.31984 17.3099C6.36002 17.1081 6.45914 16.9228 6.60466 16.7773C6.75018 16.6318 6.93557 16.5327 7.13738 16.4926C7.3392 16.4525 7.54838 16.4731 7.73847 16.5519C7.92857 16.6306 8.09104 16.764 8.20535 16.9351C8.31967 17.1062 8.38068 17.3073 8.38068 17.5131C8.38033 17.789 8.27056 18.0535 8.07545 18.2485C7.88033 18.4436 7.61581 18.5533 7.33992 18.5535ZM7.33992 17.121C7.26246 17.121 7.18675 17.1441 7.12238 17.1871C7.058 17.2302 7.00783 17.2914 6.97822 17.363C6.9486 17.4346 6.94087 17.5133 6.956 17.5893C6.97113 17.6652 7.00843 17.735 7.06321 17.7898C7.11798 17.8446 7.18776 17.8819 7.26373 17.897C7.3397 17.9121 7.41845 17.9044 7.49002 17.8748C7.5616 17.8452 7.62279 17.795 7.66586 17.7306C7.70894 17.6663 7.73196 17.5906 7.73203 17.5131C7.73185 17.4092 7.69048 17.3096 7.61697 17.2361C7.54346 17.1627 7.44383 17.1214 7.33992 17.1213V17.121Z" fill="white"/>
<path d="M19.4598 19.8512C18.9974 19.8512 18.5455 19.7141 18.161 19.4573C17.7766 19.2004 17.477 18.8353 17.3 18.4081C17.1231 17.981 17.0768 17.5109 17.167 17.0574C17.2572 16.604 17.4798 16.1874 17.8068 15.8605C18.1337 15.5335 18.5503 15.3109 19.0037 15.2207C19.4572 15.1305 19.9272 15.1768 20.3544 15.3537C20.7816 15.5307 21.1467 15.8303 21.4035 16.2147C21.6604 16.5992 21.7975 17.0511 21.7975 17.5135C21.7968 18.1333 21.5503 18.7275 21.1121 19.1658C20.6738 19.604 20.0796 19.8505 19.4598 19.8512ZM19.4598 15.8241C19.1257 15.8241 18.7992 15.9232 18.5214 16.1087C18.2437 16.2943 18.0272 16.5581 17.8993 16.8667C17.7715 17.1753 17.738 17.5149 17.8032 17.8426C17.8683 18.1702 18.0291 18.4712 18.2653 18.7074C18.5015 18.9437 18.8024 19.1046 19.1301 19.1698C19.4577 19.235 19.7973 19.2016 20.106 19.0738C20.4146 18.946 20.6784 18.7295 20.8641 18.4518C21.0497 18.1741 21.1488 17.8476 21.1489 17.5135C21.1484 17.0657 20.9702 16.6364 20.6536 16.3197C20.3369 16.0031 19.9076 15.8249 19.4598 15.8244V15.8241Z" fill="white"/>
<path d="M21.1355 13.2967H17.5128C17.4268 13.2967 17.3443 13.2626 17.2835 13.2017C17.2226 13.1409 17.1885 13.0584 17.1885 12.9724V9.34971C17.1885 9.2637 17.2226 9.18121 17.2835 9.12038C17.3443 9.05956 17.4268 9.02539 17.5128 9.02539H19.7539C19.8038 9.02541 19.853 9.03696 19.8977 9.05912C19.9425 9.08128 19.9815 9.11347 20.0117 9.15317L21.3933 10.9645C21.4364 11.021 21.4598 11.09 21.4598 11.1611V12.9724C21.4598 13.0584 21.4257 13.1409 21.3648 13.2017C21.304 13.2626 21.2215 13.2967 21.1355 13.2967ZM17.8371 12.6481H20.8112V11.2707L19.5933 9.67404H17.8371V12.6481Z" fill="white"/>
</svg>
