<svg width="30" height="30" viewBox="0 0 30 30" fill="none" xmlns="http://www.w3.org/2000/svg">
<g clip-path="url(#clip0_409_645)">
<path d="M24.9295 6.89893C24.7466 6.79123 24.5216 6.78374 24.332 6.87895C24.1427 6.9744 24.0147 7.15938 23.992 7.3702C23.9695 7.57522 23.9345 7.78018 23.8907 7.99522C22.667 13.549 20.2095 16.2502 16.3758 16.2502H10.7508C10.4542 16.2507 10.1988 16.4596 10.1395 16.7502L8.26452 25.5389L7.92954 27.7765C7.73694 28.7939 8.40561 29.7749 9.42303 29.9675C9.53524 29.9887 9.64909 29.9997 9.76329 30.0002H13.5258C14.3881 30.0028 15.14 29.4143 15.3445 28.5764L16.8645 22.5002H20.1257C23.9745 22.5002 26.6345 19.4315 27.6157 13.859C28.2634 11.2055 27.1918 8.42922 24.9295 6.89893Z" fill="#03A9F4"/>
<path d="M23.7505 2.22754C22.5155 0.826626 20.7431 0.0167447 18.8755 4.55173e-05H8.52553C6.97661 -0.00827478 5.6579 1.12498 5.43307 2.6575L2.21933 24.0962C2.0654 25.1203 2.7707 26.0752 3.79474 26.2291C3.88767 26.2431 3.98159 26.2501 4.07558 26.25H8.87557C9.17217 26.2495 9.42752 26.0406 9.48682 25.75L11.2556 17.5H16.3806C20.8281 17.5 23.7668 14.3913 25.1168 8.25003C25.1711 8.00523 25.2128 7.75784 25.2418 7.50876C25.5552 5.61414 25.0086 3.67838 23.7505 2.22754Z" fill="#283593"/>
</g>
<defs>
<clipPath id="clip0_409_645">
<rect width="30" height="30" fill="white"/>
</clipPath>
</defs>
</svg>
