<svg width="26" height="26" viewBox="0 0 26 26" fill="none" xmlns="http://www.w3.org/2000/svg">
<path d="M13.7531 25H12.2469C11.0286 25 10.0375 24.0089 10.0375 22.7906V22.2811C9.51953 22.1156 9.01633 21.9067 8.53291 21.6565L8.17178 22.0177C7.29714 22.8934 5.89609 22.8677 5.04686 22.0173L3.98228 20.9528C3.13155 20.103 3.10708 18.7024 3.98256 17.8279L4.34341 17.467C4.09323 16.9836 3.88441 16.4805 3.71889 15.9625H3.20936C1.99117 15.9625 1 14.9714 1 13.7531V12.2469C1 11.0286 1.99117 10.0375 3.20941 10.0375H3.71894C3.88445 9.51953 4.09328 9.01638 4.34345 8.53295L3.98233 8.17188C3.10736 7.29784 3.1315 5.89712 3.98261 5.04695L5.04728 3.98233C5.89848 3.12995 7.2992 3.10867 8.17216 3.98261L8.53295 4.34341C9.01638 4.09328 9.51958 3.88441 10.0375 3.71889V3.20936C10.0375 1.99112 11.0286 1 12.2469 1H13.7531C14.9714 1 15.9625 1.99112 15.9625 3.20936V3.71894C16.4804 3.88441 16.9836 4.09328 17.467 4.34345L17.8282 3.98233C18.7028 3.10661 20.1039 3.1323 20.9531 3.98266L22.0177 5.04719C22.8684 5.89698 22.8929 7.29756 22.0174 8.17211L21.6565 8.53295C21.9067 9.01638 22.1155 9.51948 22.2811 10.0375H22.7906C24.0088 10.0375 25 11.0286 25 12.2469V13.7531C25 14.9714 24.0088 15.9625 22.7906 15.9625H22.2811C22.1155 16.4805 21.9067 16.9836 21.6565 17.467L22.0177 17.8282C22.8926 18.7022 22.8685 20.1029 22.0174 20.9531L20.9527 22.0177C20.1015 22.8701 18.7008 22.8914 17.8278 22.0174L17.467 21.6566C16.9836 21.9068 16.4804 22.1156 15.9625 22.2812V22.7907C15.9625 24.0089 14.9714 25 13.7531 25ZM8.76798 20.1798C9.43956 20.577 10.1624 20.8771 10.9163 21.0716C11.2268 21.1518 11.4438 21.4318 11.4438 21.7525V22.7906C11.4438 23.2335 11.8041 23.5938 12.2469 23.5938H13.7531C14.196 23.5938 14.5563 23.2335 14.5563 22.7906V21.7525C14.5563 21.4318 14.7732 21.1518 15.0837 21.0716C15.8377 20.8771 16.5605 20.577 17.2321 20.1798C17.5084 20.0164 17.8602 20.0609 18.0872 20.2879L18.8226 21.0233C19.1396 21.3407 19.6488 21.3334 19.9581 21.0236L21.0234 19.9584C21.3319 19.6502 21.3422 19.141 21.0237 18.8228L20.288 18.0871C20.061 17.8601 20.0166 17.5083 20.1799 17.232C20.5771 16.5605 20.8771 15.8377 21.0717 15.0837C21.1518 14.7732 21.4319 14.5563 21.7525 14.5563H22.7906C23.2335 14.5563 23.5938 14.196 23.5938 13.7532V12.2469C23.5938 11.8041 23.2335 11.4438 22.7906 11.4438H21.7525C21.4318 11.4438 21.1518 11.2269 21.0717 10.9164C20.8771 10.1624 20.5771 9.43961 20.1799 8.76808C20.0166 8.4918 20.061 8.13995 20.288 7.91298L21.0234 7.17756C21.3413 6.86003 21.333 6.35097 21.0237 6.04202L19.9585 4.97678C19.6497 4.66759 19.1404 4.65855 18.8229 4.9765L18.0872 5.7122C17.8603 5.93922 17.5083 5.98366 17.2321 5.82025C16.5605 5.42308 15.8377 5.12303 15.0838 4.92845C14.7733 4.84834 14.5563 4.56831 14.5563 4.24764V3.20936C14.5563 2.76653 14.196 2.40625 13.7532 2.40625H12.247C11.8041 2.40625 11.4438 2.76653 11.4438 3.20936V4.24755C11.4438 4.56822 11.2269 4.84825 10.9164 4.92836C10.1624 5.12294 9.43961 5.42298 8.76803 5.82016C8.49166 5.98352 8.13986 5.93908 7.91289 5.71211L7.17752 4.97669C6.86045 4.65925 6.35125 4.66661 6.04202 4.97636L4.97669 6.04164C4.66816 6.3498 4.65784 6.859 4.97641 7.17719L5.71211 7.91289C5.93908 8.13986 5.98352 8.4917 5.82016 8.76798C5.42298 9.43952 5.12298 10.1623 4.92841 10.9163C4.84825 11.2268 4.56822 11.4437 4.24759 11.4437H3.20941C2.76658 11.4437 2.40625 11.804 2.40625 12.2469V13.7531C2.40625 14.196 2.76658 14.5563 3.20941 14.5563H4.24755C4.56822 14.5563 4.8482 14.7732 4.92836 15.0836C5.12294 15.8376 5.42298 16.5604 5.82011 17.232C5.98347 17.5083 5.93903 17.8601 5.71206 18.0871L4.97664 18.8225C4.65873 19.14 4.66703 19.6491 4.97636 19.958L6.04159 21.0233C6.35036 21.3325 6.85961 21.3415 7.17714 21.0235L7.9128 20.2878C8.08005 20.1206 8.428 19.9788 8.76798 20.1798Z" fill="#16162E" stroke="#16162E" stroke-width="0.4"/>
<path d="M13.0002 18.2221C10.1208 18.2221 7.77832 15.8795 7.77832 13.0002C7.77832 10.1209 10.1208 7.77832 13.0002 7.77832C15.8796 7.77832 18.2221 10.1209 18.2221 13.0002C18.2221 15.8795 15.8796 18.2221 13.0002 18.2221ZM13.0002 9.18457C10.8962 9.18457 9.18457 10.8963 9.18457 13.0002C9.18457 15.1041 10.8963 16.8158 13.0002 16.8158C15.1041 16.8158 16.8158 15.1041 16.8158 13.0002C16.8158 10.8963 15.1042 9.18457 13.0002 9.18457Z" fill="#40AA54" stroke="#40AA54" stroke-width="0.2"/>
</svg>
