<svg width="23" height="26" viewBox="0 0 23 26" fill="none" xmlns="http://www.w3.org/2000/svg">
<path d="M11.5469 1C8.05755 1 5.21875 3.8388 5.21875 7.32812C5.21875 10.8175 8.05755 13.6562 11.5469 13.6562C15.0362 13.6562 17.875 10.8175 17.875 7.32812C17.875 3.8388 15.0362 1 11.5469 1ZM11.5469 12.25C8.83295 12.25 6.625 10.042 6.625 7.32812C6.625 4.6142 8.83295 2.40625 11.5469 2.40625C14.2608 2.40625 16.4687 4.6142 16.4687 7.32812C16.4687 10.042 14.2608 12.25 11.5469 12.25Z" fill="#40AA54" stroke="#40AA54" stroke-width="0.7"/>
<path d="M13.5078 15.1094H9.58591C6.34206 15.1094 3.14073 16.6071 1 19.8183V25H22.0938V19.8183C19.9561 16.6117 16.7557 15.1094 13.5078 15.1094ZM20.6875 23.5938H20.6875H2.40625V20.2486C4.04833 17.907 6.7165 16.5156 9.58595 16.5156H13.5078C16.3773 16.5156 19.0454 17.907 20.6875 20.2486V23.5938Z" fill="#16162E" stroke="#16162E" stroke-width="0.3"/>
</svg>
