<svg width="26" height="26" viewBox="0 0 26 26" fill="none" xmlns="http://www.w3.org/2000/svg">
<path d="M5.6998 21.7998V22.6998H7.4998V21.7998H5.6998ZM18.4998 21.7998V22.6998H20.2998V21.7998H18.4998ZM7.4998 21.7998V20.9996H5.6998V21.7998H7.4998ZM11.3998 17.0998H14.5998V15.2998H11.3998V17.0998ZM18.4998 20.9996V21.7998H20.2998V20.9996H18.4998ZM14.5998 17.0998C16.7538 17.0998 18.4998 18.8457 18.4998 20.9996H20.2998C20.2998 17.8515 17.7478 15.2998 14.5998 15.2998V17.0998ZM7.4998 20.9996C7.4998 18.8457 9.24584 17.0998 11.3998 17.0998V15.2998C8.25184 15.2998 5.6998 17.8515 5.6998 20.9996H7.4998ZM12.9998 5.6998C10.7354 5.6998 8.89981 7.53544 8.89981 9.7998H10.6998C10.6998 8.52955 11.7296 7.4998 12.9998 7.4998V5.6998ZM17.0998 9.7998C17.0998 7.53544 15.2642 5.6998 12.9998 5.6998V7.4998C14.2701 7.4998 15.2998 8.52955 15.2998 9.7998H17.0998ZM12.9998 13.8998C15.2642 13.8998 17.0998 12.0642 17.0998 9.7998H15.2998C15.2998 11.0701 14.2701 12.0998 12.9998 12.0998V13.8998ZM12.9998 12.0998C11.7296 12.0998 10.6998 11.0701 10.6998 9.7998H8.89981C8.89981 12.0642 10.7354 13.8998 12.9998 13.8998V12.0998ZM12.9998 23.2998C7.31127 23.2998 2.6998 18.6883 2.6998 12.9998H0.899805C0.899805 19.6825 6.31716 25.0998 12.9998 25.0998V23.2998ZM23.2998 12.9998C23.2998 18.6883 18.6883 23.2998 12.9998 23.2998V25.0998C19.6825 25.0998 25.0998 19.6825 25.0998 12.9998H23.2998ZM12.9998 2.6998C18.6883 2.6998 23.2998 7.31127 23.2998 12.9998H25.0998C25.0998 6.31716 19.6825 0.899805 12.9998 0.899805V2.6998ZM12.9998 0.899805C6.31716 0.899805 0.899805 6.31716 0.899805 12.9998H2.6998C2.6998 7.31127 7.31127 2.6998 12.9998 2.6998V0.899805Z" fill="#16162E" fill-opacity="0.4"/>
</svg>
