<svg width="17" height="20" viewBox="0 0 17 20" fill="none" xmlns="http://www.w3.org/2000/svg">
<path d="M15.9898 16.5464L14.9002 6.01188C14.8695 5.72162 14.5929 5.5 14.2613 5.5H12.3407V4.375C12.3407 3.4705 11.9425 2.62112 11.2191 1.9855C10.4957 1.34987 9.52896 1 8.49952 1C6.38176 1 4.65836 2.51425 4.65836 4.375V5.5H2.73777C2.40615 5.5 2.12959 5.72162 2.10014 6.01188L1.01053 16.5464C0.945228 17.1741 1.18594 17.8019 1.66993 18.2676C2.15392 18.7334 2.84276 19 3.56106 19H13.4393C14.1576 19 14.8464 18.7334 15.3304 18.2676C15.8144 17.8019 16.0538 17.1741 15.9898 16.5464ZM5.93875 4.375C5.93875 3.13412 7.08726 2.125 8.49952 2.125C9.18709 2.125 9.83113 2.35787 10.3138 2.78087C10.7965 3.20387 11.0603 3.77087 11.0603 4.375V5.5H5.93875V4.375ZM14.3842 17.5094C14.1384 17.7445 13.8029 17.875 13.438 17.875H3.56106C3.19743 17.875 2.86069 17.7445 2.61614 17.5082C2.3703 17.272 2.25379 16.9671 2.28708 16.6476L3.32291 6.625H4.65836V8.3125C4.65836 8.623 4.94516 8.875 5.29855 8.875C5.65194 8.875 5.93875 8.623 5.93875 8.3125V6.625H11.0603V8.3125C11.0603 8.623 11.3471 8.875 11.7005 8.875C12.0539 8.875 12.3407 8.623 12.3407 8.3125V6.625H13.6761L14.7133 16.6488C14.7465 16.9671 14.63 17.2731 14.3842 17.5094Z" fill="white" stroke="white" stroke-width="0.2"/>
</svg>
