<svg width="299" height="70" viewBox="0 0 299 70" fill="none" xmlns="http://www.w3.org/2000/svg">
<circle cx="77" cy="11" r="11" fill="#A2E7AF"/>
<path d="M106.056 28.726C106.784 31.358 108.758 32.674 111.978 32.674C114.05 32.674 115.618 31.974 116.682 30.574L121.05 33.094C118.978 36.09 115.926 37.588 111.894 37.588C108.422 37.588 105.636 36.538 103.536 34.438C101.436 32.338 100.386 29.692 100.386 26.5C100.386 23.336 101.422 20.704 103.494 18.604C105.566 16.476 108.226 15.412 111.474 15.412C114.554 15.412 117.088 16.476 119.076 18.604C121.092 20.732 122.1 23.364 122.1 26.5C122.1 27.2 122.03 27.942 121.89 28.726H106.056ZM105.972 24.526H116.682C116.374 23.098 115.73 22.034 114.75 21.334C113.798 20.634 112.706 20.284 111.474 20.284C110.018 20.284 108.814 20.662 107.862 21.418C106.91 22.146 106.28 23.182 105.972 24.526Z" fill="#40AA54"/>
<path d="M150.476 23.464V25.408C150.476 29.008 149.324 31.924 147.02 34.156C144.716 36.388 141.74 37.504 138.092 37.504C134.204 37.504 130.976 36.244 128.408 33.724C125.864 31.18 124.592 28.084 124.592 24.436C124.592 20.764 125.852 17.656 128.372 15.112C130.916 12.568 134.06 11.296 137.804 11.296C140.156 11.296 142.304 11.836 144.248 12.916C146.192 13.972 147.704 15.388 148.784 17.164L144.536 19.612C143.936 18.58 143.024 17.74 141.8 17.092C140.6 16.444 139.256 16.12 137.768 16.12C135.368 16.12 133.388 16.912 131.828 18.496C130.292 20.056 129.524 22.036 129.524 24.436C129.524 26.812 130.304 28.78 131.864 30.34C133.448 31.876 135.536 32.644 138.128 32.644C140.048 32.644 141.632 32.224 142.88 31.384C144.152 30.52 145.016 29.344 145.472 27.856H137.84V23.464H150.476ZM158.438 22.096C158.87 20.944 159.578 20.08 160.562 19.504C161.57 18.928 162.686 18.64 163.91 18.64V23.824C162.494 23.656 161.222 23.944 160.094 24.688C158.99 25.432 158.438 26.668 158.438 28.396V37H153.794V19H158.438V22.096ZM181.294 34.768C179.446 36.592 177.19 37.504 174.526 37.504C171.862 37.504 169.606 36.592 167.758 34.768C165.934 32.92 165.022 30.664 165.022 28C165.022 25.336 165.934 23.092 167.758 21.268C169.606 19.42 171.862 18.496 174.526 18.496C177.19 18.496 179.446 19.42 181.294 21.268C183.142 23.092 184.066 25.336 184.066 28C184.066 30.664 183.142 32.92 181.294 34.768ZM171.034 31.564C171.97 32.5 173.134 32.968 174.526 32.968C175.918 32.968 177.082 32.5 178.018 31.564C178.954 30.628 179.422 29.44 179.422 28C179.422 26.56 178.954 25.372 178.018 24.436C177.082 23.5 175.918 23.032 174.526 23.032C173.134 23.032 171.97 23.5 171.034 24.436C170.122 25.372 169.666 26.56 169.666 28C169.666 29.44 170.122 30.628 171.034 31.564ZM195.901 37.504C193.189 37.504 190.921 36.592 189.097 34.768C187.297 32.944 186.397 30.688 186.397 28C186.397 25.312 187.297 23.056 189.097 21.232C190.921 19.408 193.189 18.496 195.901 18.496C197.653 18.496 199.249 18.916 200.689 19.756C202.129 20.596 203.221 21.724 203.965 23.14L199.969 25.48C199.609 24.736 199.057 24.148 198.313 23.716C197.593 23.284 196.777 23.068 195.865 23.068C194.473 23.068 193.321 23.536 192.409 24.472C191.497 25.384 191.041 26.56 191.041 28C191.041 29.416 191.497 30.592 192.409 31.528C193.321 32.44 194.473 32.896 195.865 32.896C196.801 32.896 197.629 32.692 198.349 32.284C199.093 31.852 199.645 31.264 200.005 30.52L204.037 32.824C203.245 34.24 202.129 35.38 200.689 36.244C199.249 37.084 197.653 37.504 195.901 37.504ZM210.136 29.908C210.76 32.164 212.452 33.292 215.212 33.292C216.988 33.292 218.332 32.692 219.244 31.492L222.988 33.652C221.212 36.22 218.596 37.504 215.14 37.504C212.164 37.504 209.776 36.604 207.976 34.804C206.176 33.004 205.276 30.736 205.276 28C205.276 25.288 206.164 23.032 207.94 21.232C209.716 19.408 211.996 18.496 214.78 18.496C217.42 18.496 219.592 19.408 221.296 21.232C223.024 23.056 223.888 25.312 223.888 28C223.888 28.6 223.828 29.236 223.708 29.908H210.136ZM210.064 26.308H219.244C218.98 25.084 218.428 24.172 217.588 23.572C216.772 22.972 215.836 22.672 214.78 22.672C213.532 22.672 212.5 22.996 211.684 23.644C210.868 24.268 210.328 25.156 210.064 26.308ZM231.774 22.096C232.206 20.944 232.914 20.08 233.898 19.504C234.906 18.928 236.022 18.64 237.246 18.64V23.824C235.83 23.656 234.558 23.944 233.43 24.688C232.326 25.432 231.774 26.668 231.774 28.396V37H227.13V19H231.774V22.096ZM252.085 19H257.053L250.501 37C249.565 39.592 248.317 41.464 246.757 42.616C245.221 43.792 243.301 44.32 240.997 44.2V39.88C242.245 39.904 243.229 39.64 243.949 39.088C244.693 38.536 245.281 37.648 245.713 36.424L238.333 19H243.409L248.089 31.096L252.085 19Z" fill="#373737"/>
<path d="M24.9648 51.4H62.0476C65.1587 51.4 67.8585 49.3442 68.6108 46.41L76.9302 14.543C77.1021 13.8849 76.9525 13.1861 76.5252 12.6499C76.0977 12.1137 75.4403 11.8 74.744 11.8H15.357L14.0233 7.63335C13.1363 4.86193 10.5401 3 7.56328 3H2.25586C1.01002 3 0 3.98501 0 5.2C0 6.41499 1.00987 7.4 2.25586 7.4H7.56328C8.55556 7.4 9.4209 8.02069 9.71657 8.9444C10.3885 11.0436 21.3769 45.3733 22.0972 47.6236C19.7954 48.6785 18.1972 50.9601 18.1972 53.6C18.1972 57.2392 21.2332 60.1985 24.9648 60.1985H27.6087C27.3583 60.8871 27.2207 61.6288 27.2207 62.4C27.2207 66.0392 30.2566 69 33.9882 69C37.7199 69 40.7558 66.0392 40.7558 62.4C40.7558 61.6288 40.6182 60.8886 40.3678 60.1985H50.1674C49.917 60.8886 49.7794 61.6288 49.7794 62.4C49.7794 66.0392 52.8153 69 56.5469 69C60.2786 69 63.3145 66.0392 63.3145 62.4C63.3145 61.6288 63.1769 60.8886 62.9265 60.2H65.5702C66.816 60.2 67.826 59.215 67.826 58C67.826 56.785 66.816 55.8 65.5702 55.8H24.9648C23.7209 55.8 22.7089 54.8131 22.7089 53.6C22.7089 52.3869 23.7209 51.4 24.9648 51.4ZM36.2441 62.4C36.2441 63.6131 35.2321 64.6 33.9882 64.6C32.7443 64.6 31.7324 63.6131 31.7324 62.4C31.7324 61.1869 32.7443 60.2 33.9882 60.2C35.2321 60.2 36.2441 61.1869 36.2441 62.4ZM58.8026 62.4C58.8026 63.6131 57.7906 64.6 56.5468 64.6C55.3029 64.6 54.2909 63.6131 54.2909 62.4C54.2909 61.1869 55.3029 60.2 56.5468 60.2C57.7906 60.2 58.8026 61.1869 58.8026 62.4ZM51.7355 33.8L50.0436 47H40.4914L38.7995 33.8H51.7355ZM38.2355 29.4L36.5437 16.2H53.9913L52.2994 29.4H38.2355ZM35.9445 47H26.6238L22.3987 33.8H34.2526L35.9445 47ZM64.2361 45.3336C63.9846 46.3148 63.0845 47 62.0476 47H54.5905L56.2824 33.8H67.247L64.2361 45.3336ZM68.3957 29.4H56.8462L58.5381 16.2H71.8418L68.3957 29.4ZM31.9967 16.2L33.6886 29.4H20.9903L16.7652 16.2H31.9967Z" fill="#40AA54"/>
<path opacity="0.7" d="M109.3 55H111.16L107.08 65.62C106.653 66.7533 106.053 67.6133 105.28 68.2C104.52 68.8 103.64 69.0667 102.64 69V67.38C103.867 67.4733 104.767 66.7933 105.34 65.34L105.52 64.96L101.16 55H103.02L106.42 62.84L109.3 55ZM121.162 63.74C120.136 64.7533 118.889 65.26 117.422 65.26C115.956 65.26 114.709 64.7533 113.682 63.74C112.669 62.7267 112.162 61.48 112.162 60C112.162 58.52 112.669 57.2733 113.682 56.26C114.709 55.2467 115.956 54.74 117.422 54.74C118.889 54.74 120.136 55.2467 121.162 56.26C122.189 57.2733 122.702 58.52 122.702 60C122.702 61.48 122.189 62.7267 121.162 63.74ZM117.422 63.56C118.422 63.56 119.262 63.22 119.942 62.54C120.622 61.86 120.962 61.0133 120.962 60C120.962 58.9867 120.622 58.14 119.942 57.46C119.262 56.78 118.422 56.44 117.422 56.44C116.436 56.44 115.602 56.78 114.922 57.46C114.242 58.14 113.902 58.9867 113.902 60C113.902 61.0133 114.242 61.86 114.922 62.54C115.602 63.22 116.436 63.56 117.422 63.56ZM132.154 55H133.894V65H132.154V63.56C131.447 64.6933 130.367 65.26 128.914 65.26C127.74 65.26 126.8 64.8933 126.094 64.16C125.387 63.4133 125.034 62.4067 125.034 61.14V55H126.774V61.04C126.774 61.8533 126.994 62.4867 127.434 62.94C127.874 63.38 128.48 63.6 129.254 63.6C130.12 63.6 130.82 63.3333 131.354 62.8C131.887 62.2533 132.154 61.42 132.154 60.3V55ZM138.783 56.68C139.356 55.44 140.396 54.82 141.903 54.82V56.64C141.049 56.6 140.316 56.8267 139.703 57.32C139.089 57.8133 138.783 58.6067 138.783 59.7V65H137.043V55H138.783V56.68ZM157.885 51H159.625V65H157.885V63.28C157.018 64.6 155.758 65.26 154.105 65.26C152.705 65.26 151.512 64.7533 150.525 63.74C149.538 62.7133 149.045 61.4667 149.045 60C149.045 58.5333 149.538 57.2933 150.525 56.28C151.512 55.2533 152.705 54.74 154.105 54.74C155.758 54.74 157.018 55.4 157.885 56.72V51ZM154.325 63.58C155.338 63.58 156.185 63.24 156.865 62.56C157.545 61.8667 157.885 61.0133 157.885 60C157.885 58.9867 157.545 58.14 156.865 57.46C156.185 56.7667 155.338 56.42 154.325 56.42C153.325 56.42 152.485 56.7667 151.805 57.46C151.125 58.14 150.785 58.9867 150.785 60C150.785 61.0133 151.125 61.8667 151.805 62.56C152.485 63.24 153.325 63.58 154.325 63.58ZM171.041 55H172.781V65H171.041V63.28C170.175 64.6 168.915 65.26 167.261 65.26C165.861 65.26 164.668 64.7533 163.681 63.74C162.695 62.7133 162.201 61.4667 162.201 60C162.201 58.5333 162.695 57.2933 163.681 56.28C164.668 55.2533 165.861 54.74 167.261 54.74C168.915 54.74 170.175 55.4 171.041 56.72V55ZM167.481 63.58C168.495 63.58 169.341 63.24 170.021 62.56C170.701 61.8667 171.041 61.0133 171.041 60C171.041 58.9867 170.701 58.14 170.021 57.46C169.341 56.7667 168.495 56.42 167.481 56.42C166.481 56.42 165.641 56.7667 164.961 57.46C164.281 58.14 163.941 58.9867 163.941 60C163.941 61.0133 164.281 61.8667 164.961 62.56C165.641 63.24 166.481 63.58 167.481 63.58ZM176.798 53.18C176.464 53.18 176.184 53.0667 175.958 52.84C175.731 52.6133 175.618 52.34 175.618 52.02C175.618 51.7 175.731 51.4267 175.958 51.2C176.184 50.96 176.464 50.84 176.798 50.84C177.118 50.84 177.391 50.96 177.618 51.2C177.844 51.4267 177.958 51.7 177.958 52.02C177.958 52.34 177.844 52.6133 177.618 52.84C177.391 53.0667 177.118 53.18 176.798 53.18ZM175.918 65V55H177.658V65H175.918ZM180.812 65V50.4H182.552V65H180.812ZM192.687 55H194.547L190.467 65.62C190.04 66.7533 189.44 67.6133 188.667 68.2C187.907 68.8 187.027 69.0667 186.027 69V67.38C187.253 67.4733 188.153 66.7933 188.727 65.34L188.907 64.96L184.547 55H186.407L189.807 62.84L192.687 55ZM206.98 54.74C208.153 54.74 209.093 55.1133 209.8 55.86C210.506 56.5933 210.86 57.5933 210.86 58.86V65H209.12V58.96C209.12 58.1467 208.9 57.52 208.46 57.08C208.02 56.6267 207.413 56.4 206.64 56.4C205.773 56.4 205.073 56.6733 204.54 57.22C204.006 57.7533 203.74 58.58 203.74 59.7V65H202V55H203.74V56.44C204.446 55.3067 205.526 54.74 206.98 54.74ZM215.009 60.8C215.182 61.6933 215.589 62.3867 216.229 62.88C216.882 63.3733 217.682 63.62 218.629 63.62C219.949 63.62 220.909 63.1333 221.509 62.16L222.989 63C222.015 64.5067 220.549 65.26 218.589 65.26C217.002 65.26 215.709 64.7667 214.709 63.78C213.722 62.78 213.229 61.52 213.229 60C213.229 58.4933 213.715 57.24 214.689 56.24C215.662 55.24 216.922 54.74 218.469 54.74C219.935 54.74 221.129 55.26 222.049 56.3C222.982 57.3267 223.449 58.5667 223.449 60.02C223.449 60.2733 223.429 60.5333 223.389 60.8H215.009ZM218.469 56.38C217.535 56.38 216.762 56.6467 216.149 57.18C215.535 57.7 215.155 58.4 215.009 59.28H221.689C221.542 58.3333 221.169 57.6133 220.569 57.12C219.969 56.6267 219.269 56.38 218.469 56.38ZM227.149 60.8C227.323 61.6933 227.729 62.3867 228.369 62.88C229.023 63.3733 229.823 63.62 230.769 63.62C232.089 63.62 233.049 63.1333 233.649 62.16L235.129 63C234.156 64.5067 232.689 65.26 230.729 65.26C229.143 65.26 227.849 64.7667 226.849 63.78C225.863 62.78 225.369 61.52 225.369 60C225.369 58.4933 225.856 57.24 226.829 56.24C227.803 55.24 229.063 54.74 230.609 54.74C232.076 54.74 233.269 55.26 234.189 56.3C235.123 57.3267 235.589 58.5667 235.589 60.02C235.589 60.2733 235.569 60.5333 235.529 60.8H227.149ZM230.609 56.38C229.676 56.38 228.903 56.6467 228.289 57.18C227.676 57.7 227.296 58.4 227.149 59.28H233.829C233.683 58.3333 233.309 57.6133 232.709 57.12C232.109 56.6267 231.409 56.38 230.609 56.38ZM246.35 51H248.09V65H246.35V63.28C245.483 64.6 244.223 65.26 242.57 65.26C241.17 65.26 239.977 64.7533 238.99 63.74C238.003 62.7133 237.51 61.4667 237.51 60C237.51 58.5333 238.003 57.2933 238.99 56.28C239.977 55.2533 241.17 54.74 242.57 54.74C244.223 54.74 245.483 55.4 246.35 56.72V51ZM242.79 63.58C243.803 63.58 244.65 63.24 245.33 62.56C246.01 61.8667 246.35 61.0133 246.35 60C246.35 58.9867 246.01 58.14 245.33 57.46C244.65 56.7667 243.803 56.42 242.79 56.42C241.79 56.42 240.95 56.7667 240.27 57.46C239.59 58.14 239.25 58.9867 239.25 60C239.25 61.0133 239.59 61.8667 240.27 62.56C240.95 63.24 241.79 63.58 242.79 63.58ZM252.707 57.7C252.707 58.0867 252.9 58.4 253.287 58.64C253.673 58.8667 254.14 59.0533 254.687 59.2C255.233 59.3333 255.78 59.4933 256.327 59.68C256.873 59.8533 257.34 60.16 257.727 60.6C258.113 61.0267 258.307 61.58 258.307 62.26C258.307 63.1667 257.953 63.8933 257.247 64.44C256.553 64.9867 255.66 65.26 254.567 65.26C253.593 65.26 252.76 65.0467 252.067 64.62C251.373 64.1933 250.88 63.6267 250.587 62.92L252.087 62.06C252.247 62.54 252.547 62.92 252.987 63.2C253.427 63.48 253.953 63.62 254.567 63.62C255.14 63.62 255.613 63.5133 255.987 63.3C256.36 63.0733 256.547 62.7267 256.547 62.26C256.547 61.8733 256.353 61.5667 255.967 61.34C255.58 61.1 255.113 60.9133 254.567 60.78C254.02 60.6333 253.473 60.4667 252.927 60.28C252.38 60.0933 251.913 59.7867 251.527 59.36C251.14 58.9333 250.947 58.3867 250.947 57.72C250.947 56.8533 251.28 56.14 251.947 55.58C252.627 55.02 253.473 54.74 254.487 54.74C255.3 54.74 256.02 54.9267 256.647 55.3C257.287 55.66 257.767 56.1667 258.087 56.82L256.627 57.64C256.267 56.7867 255.553 56.36 254.487 56.36C253.993 56.36 253.573 56.48 253.227 56.72C252.88 56.9467 252.707 57.2733 252.707 57.7Z" fill="#16162E"/>
</svg>
