<svg width="28" height="28" viewBox="0 0 28 28" fill="none" xmlns="http://www.w3.org/2000/svg">
<circle cx="14" cy="14" r="14" fill="#40AA54"/>
<path d="M20.2999 13.3H14.7V7.69996C14.7 7.31364 14.3864 7 13.9999 7C13.6136 7 13.3 7.31364 13.3 7.69996V13.3H7.69996C7.31364 13.3 7 13.6136 7 13.9999C7 14.3864 7.31364 14.7 7.69996 14.7H13.3V20.2999C13.3 20.6864 13.6136 21 13.9999 21C14.3864 21 14.7 20.6864 14.7 20.2999V14.7H20.2999C20.6864 14.7 21 14.3864 21 13.9999C21 13.6136 20.6864 13.3 20.2999 13.3Z" fill="white"/>
</svg>
