<svg width="60" height="60" viewBox="0 0 60 60" fill="none" xmlns="http://www.w3.org/2000/svg">
<path d="M59.5 30C59.5 46.2924 46.2924 59.5 30 59.5C13.7076 59.5 0.5 46.2924 0.5 30C0.5 13.7076 13.7076 0.5 30 0.5C46.2924 0.5 59.5 13.7076 59.5 30Z" stroke="#333333"/>
<path d="M25.4413 44.9421C24.5959 44.9091 23.3329 43.9873 22.7858 43.367C21.3859 41.7797 20.2455 40.0208 19.439 38.0609C18.5209 35.83 17.9733 33.5164 18.001 31.0875C18.0209 29.3405 18.362 27.6648 19.2366 26.1398C20.3179 24.2543 21.9144 23.0143 24.0481 22.513C24.8971 22.3135 25.7625 22.2335 26.611 22.4846C27.4594 22.7355 28.2953 23.0318 29.1277 23.3329C29.8489 23.5938 30.5567 23.7826 31.3138 23.4545C31.8113 23.2389 32.3288 23.0691 32.8383 22.8816C33.6728 22.5745 34.5163 22.2897 35.4147 22.263C37.1523 22.2111 38.7552 22.6373 40.1692 23.6775C40.7523 24.1065 41.2425 24.6277 41.6491 25.2383C41.5932 25.2805 41.5504 25.3154 41.5051 25.3466C40.8961 25.7653 40.3567 26.2595 39.8902 26.8331C38.6518 28.3554 38.222 30.0932 38.5143 32.0203C38.7183 33.3649 39.2977 34.5256 40.243 35.504C40.8206 36.1019 41.7906 36.7273 42.5371 37.0898C42.407 37.3982 42.1519 37.896 42.028 38.2073C41.4992 39.5361 40.7875 40.7627 39.9502 41.9196C39.3547 42.7422 38.7554 43.558 37.9418 44.1897C37.1974 44.7677 36.3734 45.0566 35.424 44.9907C34.7007 44.9404 34.0312 44.7145 33.3832 44.4145C31.9672 43.7589 30.5138 43.6281 29.0203 44.0956C28.6478 44.2122 28.2964 44.3952 27.9249 44.5159C27.3352 44.7075 26.061 44.9663 25.4413 44.9421Z" fill="#333333"/>
<path d="M40.2431 35.5039C39.2979 34.5255 38.7185 33.3649 38.5146 32.0203C38.2223 30.0932 38.6521 28.3554 39.8905 26.833C40.357 26.2595 40.8963 25.7653 41.5053 25.3466C41.5507 25.3154 41.5934 25.2805 41.6493 25.2383C41.2426 24.6277 40.7525 24.1065 40.1693 23.6775C38.7553 22.6374 37.1524 22.2112 35.4148 22.263C34.5165 22.2898 33.673 22.5745 32.8384 22.8816C32.3289 23.0691 31.8114 23.2389 31.314 23.4545C30.9445 23.6147 30.5868 23.6511 30.2334 23.6167V43.8467C31.3038 43.7401 32.3536 43.9378 33.3834 44.4145C34.0314 44.7146 34.701 44.9404 35.4241 44.9906C36.3737 45.0566 37.1976 44.7676 37.942 44.1897C38.7556 43.5579 39.3549 42.7422 39.9503 41.9196C40.7877 40.7627 41.4994 39.5361 42.0282 38.2073C42.152 37.8961 42.4072 37.3983 42.5373 37.0898C41.7908 36.7273 40.8208 36.1019 40.2431 35.5039Z" fill="#333333"/>
<path d="M36.1733 15C36.1697 15.4765 36.224 15.962 36.152 16.4278C35.8848 18.1547 35.0742 19.5949 33.7094 20.6923C32.6978 21.5056 31.5528 21.991 30.1994 21.9069C30.1225 21.3853 30.1397 20.8678 30.252 20.3612C30.654 18.5493 31.6178 17.1069 33.1655 16.0774C33.9642 15.5461 34.8407 15.1834 35.7992 15.0434C35.845 15.0366 36.0934 15 36.1733 15Z" fill="#333333"/>
</svg>
