<svg width="30" height="30" viewBox="0 0 30 30" fill="none" xmlns="http://www.w3.org/2000/svg">
<path d="M15 30C23.2843 30 30 23.2843 30 15C30 6.71573 23.2843 0 15 0C6.71573 0 0 6.71573 0 15C0 23.2843 6.71573 30 15 30Z" fill="#333333"/>
<path d="M12.7207 21.9716C12.298 21.9551 11.6665 21.4942 11.3929 21.184C10.693 20.3904 10.1228 19.5109 9.71949 18.531C9.26045 17.4155 8.98663 16.2587 9.0005 15.0443C9.01047 14.1707 9.18099 13.3329 9.6183 12.5704C10.159 11.6276 10.9572 11.0076 12.0241 10.757C12.4486 10.6573 12.8813 10.6172 13.3055 10.7428C13.7297 10.8683 14.1477 11.0164 14.5639 11.1669C14.9245 11.2974 15.2784 11.3918 15.657 11.2278C15.9057 11.1199 16.1644 11.035 16.4192 10.9413C16.8364 10.7877 17.2582 10.6454 17.7074 10.632C18.5762 10.606 19.3776 10.8191 20.0846 11.3392C20.3762 11.5537 20.6213 11.8143 20.8246 12.1197C20.7967 12.1407 20.7753 12.1582 20.7526 12.1738C20.4481 12.3831 20.1784 12.6302 19.9452 12.917C19.326 13.6782 19.1111 14.5471 19.2572 15.5106C19.3592 16.1829 19.6489 16.7633 20.1215 17.2525C20.4104 17.5515 20.8954 17.8642 21.2686 18.0454C21.2036 18.1996 21.076 18.4485 21.0141 18.6042C20.7497 19.2686 20.3938 19.8819 19.9751 20.4603C19.6774 20.8717 19.3778 21.2795 18.971 21.5954C18.5987 21.8844 18.1868 22.0289 17.712 21.9959C17.3504 21.9708 17.0156 21.8578 16.6916 21.7078C15.9836 21.38 15.257 21.3146 14.5102 21.5484C14.3239 21.6067 14.1482 21.6981 13.9625 21.7585C13.6676 21.8543 13.0305 21.9837 12.7207 21.9716Z" fill="white"/>
<path d="M20.1201 17.2525C19.6475 16.7633 19.3578 16.1829 19.2558 15.5106C19.1097 14.5471 19.3246 13.6782 19.9438 12.917C20.1771 12.6302 20.4467 12.3831 20.7512 12.1738C20.7739 12.1582 20.7953 12.1407 20.8232 12.1196C20.6199 11.8143 20.3748 11.5537 20.0832 11.3392C19.3762 10.8192 18.5747 10.6061 17.706 10.632C17.2568 10.6454 16.835 10.7877 16.4178 10.9413C16.163 11.035 15.9043 11.12 15.6555 11.2277C15.4708 11.3078 15.2919 11.3261 15.1152 11.3088V21.4239C15.6504 21.3706 16.1753 21.4694 16.6902 21.7078C17.0142 21.8578 17.349 21.9708 17.7106 21.9959C18.1854 22.0288 18.5974 21.8843 18.9696 21.5954C19.3764 21.2795 19.676 20.8716 19.9737 20.4603C20.3924 19.8819 20.7483 19.2686 21.0126 18.6042C21.0746 18.4486 21.2021 18.1997 21.2672 18.0454C20.894 17.8642 20.409 17.5515 20.1201 17.2525Z" fill="white"/>
<path d="M18.0872 7C18.0853 7.23825 18.1125 7.48099 18.0765 7.71392C17.9429 8.57734 17.5376 9.29748 16.8552 9.84615C16.3494 10.2528 15.7769 10.4955 15.1002 10.4534C15.0618 10.1927 15.0703 9.93392 15.1265 9.6806C15.3275 8.77466 15.8094 8.05345 16.5832 7.53871C16.9826 7.27304 17.4209 7.09169 17.9001 7.0217C17.923 7.01832 18.0472 7 18.0872 7Z" fill="white"/>
</svg>
