<svg width="26" height="25" viewBox="0 0 26 25" fill="none" xmlns="http://www.w3.org/2000/svg">
<path d="M4.91816 23.0365L5.81259 22.5893L5.81259 22.5893L4.91816 23.0365ZM21.0814 23.0365L21.9759 23.4837L21.9759 23.4837L21.0814 23.0365ZM2.12492 9.7998H23.8747V7.7998H2.12492V9.7998ZM23.1998 9.12492V9.82694H25.1998V9.12492H23.1998ZM20.8173 22.1998H5.18236V24.1998H20.8173V22.1998ZM2.7998 9.82694V9.12492H0.799805V9.82694H2.7998ZM5.81259 22.5893C3.8313 18.6267 2.7998 14.2572 2.7998 9.82694H0.799805C0.799805 14.5677 1.90359 19.2434 4.02374 23.4837L5.81259 22.5893ZM5.18236 22.1998C5.44925 22.1998 5.69324 22.3506 5.81259 22.5893L4.02374 23.4837C4.24316 23.9226 4.6917 24.1998 5.18236 24.1998V22.1998ZM20.187 22.5893C20.3064 22.3506 20.5504 22.1998 20.8173 22.1998V24.1998C21.3079 24.1998 21.7564 23.9226 21.9759 23.4837L20.187 22.5893ZM23.1998 9.82694C23.1998 14.2572 22.1683 18.6267 20.187 22.5893L21.9759 23.4837C24.096 19.2434 25.1998 14.5677 25.1998 9.82694H23.1998ZM23.8747 9.7998C23.502 9.7998 23.1998 9.49765 23.1998 9.12492H25.1998C25.1998 8.39308 24.6065 7.7998 23.8747 7.7998V9.7998ZM2.12492 7.7998C1.39308 7.7998 0.799805 8.39308 0.799805 9.12492H2.7998C2.7998 9.49765 2.49765 9.7998 2.12492 9.7998V7.7998ZM7.4573 9.3143L12.2573 1.3143L10.5423 0.285309L5.74231 8.28531L7.4573 9.3143ZM13.7423 1.3143L18.5423 9.3143L20.2573 8.28531L15.4573 0.285309L13.7423 1.3143ZM11.9998 11.1998V19.1998H13.9998V11.1998H11.9998ZM8.9998 16.1998H16.9998V14.1998H8.9998V16.1998Z" fill="white"/>
</svg>
