<svg width="30" height="30" viewBox="0 0 30 30" fill="none" xmlns="http://www.w3.org/2000/svg">
<circle cx="15" cy="15" r="14.5" stroke="#40AA54"/>
<path d="M14.8987 9.36914C12.7425 9.36914 10.9883 11.1234 10.9883 13.2796C10.9883 15.9897 14.9026 20.6191 14.9026 20.6191C14.9026 20.6191 18.8092 15.8564 18.8092 13.2796C18.8092 11.1234 17.055 9.36914 14.8987 9.36914ZM16.0786 14.4246C15.7533 14.7498 15.326 14.9125 14.8987 14.9125C14.4715 14.9125 14.0441 14.7498 13.7189 14.4246C13.0683 13.774 13.0683 12.7155 13.7189 12.0649C14.034 11.7497 14.453 11.5762 14.8987 11.5762C15.3444 11.5762 15.7634 11.7498 16.0786 12.0649C16.7292 12.7155 16.7292 13.774 16.0786 14.4246Z" fill="#40AA54"/>
</svg>
