<svg width="14" height="14" viewBox="0 0 14 14" fill="none" xmlns="http://www.w3.org/2000/svg">
<path d="M11.5415 3.94855H2.45964C2.36139 3.94021 2.26403 3.97267 2.19041 4.03829C2.11803 4.10782 2.0845 4.20848 2.10068 4.30752L3.03398 12.4381C3.14343 13.3345 3.9078 14.0062 4.81084 13.9996H9.33379C10.2622 14.0128 11.0443 13.3089 11.1286 12.3842L11.9004 4.27162C11.9052 4.1846 11.8725 4.09968 11.8106 4.03829C11.7371 3.97267 11.6397 3.94021 11.5415 3.94855ZM10.4107 12.3483C10.3543 12.8949 9.88284 13.3035 9.33382 13.2816H4.81087C4.27172 13.3035 3.80828 12.9029 3.75191 12.3663L2.85451 4.66649H11.1466L10.4107 12.3483Z" fill="#16162E"/>
<path d="M12.8513 1.61554H9.15391V1.04117C9.17384 0.486423 8.74029 0.0205819 8.18554 0.000656586C8.16733 3.85837e-06 8.14909 -0.000167912 8.13088 0.000175629H5.86939C5.31437 -0.0100962 4.85615 0.431491 4.84588 0.986515C4.84554 1.00472 4.84571 1.02296 4.84636 1.04117V1.6155H1.149C0.950747 1.6155 0.790039 1.77621 0.790039 1.97447C0.790039 2.17273 0.950747 2.33343 1.149 2.33343H12.8513C13.0495 2.33343 13.2102 2.17273 13.2102 1.97447C13.2102 1.77621 13.0495 1.61554 12.8513 1.61554ZM8.43598 1.04117V1.6155H5.56426V1.04117C5.54402 0.883865 5.65516 0.739956 5.81246 0.719721C5.83133 0.717282 5.85039 0.716767 5.86936 0.718107H8.13085C8.28905 0.706907 8.4264 0.826047 8.4376 0.984282C8.43897 1.00325 8.43842 1.02231 8.43598 1.04117Z" fill="#16162E"/>
</svg>
