<svg width="15" height="15" viewBox="0 0 15 15" fill="none" xmlns="http://www.w3.org/2000/svg">
<path d="M6.00772 7.5C6.00772 6.67157 6.67586 6 7.50006 6C8.32425 6 8.99239 6.67157 8.99239 7.5C8.99239 8.32843 8.32425 9 7.50006 9C6.67586 9 6.00772 8.32843 6.00772 7.5Z" fill="#16162E"/>
<path fill-rule="evenodd" clip-rule="evenodd" d="M14.4643 7.49998C14.9261 7.3143 14.926 7.31409 14.9259 7.31385L14.9251 7.31182L14.9234 7.30752L14.9176 7.29356C14.9128 7.28192 14.906 7.26564 14.8971 7.24504C14.8793 7.20385 14.8534 7.14533 14.819 7.07195C14.7502 6.92526 14.6473 6.71871 14.5084 6.47224C14.231 5.98029 13.8067 5.32375 13.2173 4.66552C12.0378 3.34827 10.1722 2 7.49998 2C4.82772 2 2.96217 3.34827 1.78271 4.66552C1.19332 5.32375 0.768948 5.98029 0.491602 6.47224C0.352649 6.71872 0.249825 6.92526 0.181025 7.07195C0.146607 7.14533 0.120648 7.20386 0.102891 7.24505C0.0940104 7.26564 0.087176 7.28192 0.0823558 7.29356L0.07663 7.30752L0.0748912 7.31182L0.0743015 7.31329C0.0742083 7.31353 0.0738976 7.31431 0.535764 7.5L0.0738976 7.31431L0 7.5L0.0738976 7.68569L0.535764 7.5C0.0738976 7.68569 0.0738044 7.68546 0.0738976 7.68569L0.0743015 7.68671L0.0748912 7.68818L0.07663 7.69248L0.0823558 7.70644C0.087176 7.71808 0.0940104 7.73436 0.102891 7.75495C0.120648 7.79614 0.146607 7.85467 0.181025 7.92805C0.249825 8.07474 0.352649 8.28128 0.491602 8.52776C0.768948 9.01971 1.19332 9.67625 1.78271 10.3345C2.96217 11.6517 4.82772 13 7.49998 13C10.1722 13 12.0378 11.6517 13.2173 10.3345C13.8067 9.67625 14.231 9.01971 14.5084 8.52776C14.6473 8.28129 14.7502 8.07474 14.819 7.92805C14.8534 7.85467 14.8793 7.79615 14.8971 7.75496C14.906 7.73436 14.9128 7.71808 14.9176 7.70644L14.9234 7.69248L14.9251 7.68818L14.9257 7.68671C14.9258 7.68647 14.9261 7.68566 14.4643 7.49998L14.9261 7.6857L15 7.5L14.9259 7.31385L14.4643 7.49998ZM7.50006 5C6.1264 5 5.01283 6.11929 5.01283 7.5C5.01283 8.88071 6.1264 10 7.50006 10C8.87371 10 9.98728 8.88071 9.98728 7.5C9.98728 6.11929 8.87371 5 7.50006 5Z" fill="#16162E"/>
</svg>
