<svg width="20" height="20" viewBox="0 0 20 20" fill="none" xmlns="http://www.w3.org/2000/svg">
<path d="M10.0003 18L9.64677 18.3536C9.74054 18.4473 9.86772 18.5 10.0003 18.5C10.1329 18.5 10.2601 18.4473 10.3539 18.3536L10.0003 18ZM2.0477 10.0474L1.69415 10.4009L1.69415 10.4009L2.0477 10.0474ZM8.71437 3.38071L8.36082 3.73427V3.73427L8.71437 3.38071ZM10.0003 4.66667L9.64677 5.02022C9.84203 5.21548 10.1586 5.21548 10.3539 5.02022L10.0003 4.66667ZM11.2863 3.38071L10.9327 3.02716V3.02716L11.2863 3.38071ZM10.3539 17.6464L2.40126 9.69382L1.69415 10.4009L9.64677 18.3536L10.3539 17.6464ZM17.5994 9.69383L9.64677 17.6464L10.3539 18.3536L18.3065 10.4009L17.5994 9.69383ZM8.36082 3.73427L9.64677 5.02022L10.3539 4.31311L9.06792 3.02716L8.36082 3.73427ZM10.3539 5.02022L11.6398 3.73426L10.9327 3.02716L9.64677 4.31311L10.3539 5.02022ZM14.6196 1.5C13.2368 1.5 11.9106 2.04933 10.9327 3.02716L11.6398 3.73426C12.4301 2.94398 13.502 2.5 14.6196 2.5V1.5ZM18.8337 6.71405C18.8337 7.83168 18.3897 8.90354 17.5994 9.69383L18.3065 10.4009C19.2843 9.42311 19.8337 8.0969 19.8337 6.71405H18.8337ZM19.8337 6.71405C19.8337 3.83441 17.4993 1.5 14.6196 1.5V2.5C16.947 2.5 18.8337 4.38669 18.8337 6.71405H19.8337ZM5.38104 2.5C6.49867 2.5 7.57053 2.94398 8.36082 3.73427L9.06792 3.02716C8.0901 2.04934 6.76389 1.5 5.38104 1.5V2.5ZM1.16699 6.71405C1.16699 4.38669 3.05368 2.5 5.38104 2.5V1.5C2.5014 1.5 0.166992 3.83441 0.166992 6.71405H1.16699ZM2.40126 9.69382C1.61097 8.90354 1.16699 7.83168 1.16699 6.71405H0.166992C0.166992 8.0969 0.716326 9.42311 1.69415 10.4009L2.40126 9.69382Z" fill="#16162E"/>
</svg>
