<svg width="30" height="30" viewBox="0 0 30 30" fill="none" xmlns="http://www.w3.org/2000/svg">
<path d="M30 23.5712C30 24.5506 29.2061 25.3446 28.2267 25.3446H1.77334C0.793945 25.3446 0 24.5505 0 23.5712V6.42867C0 5.44922 0.793945 4.65527 1.77334 4.65527H28.2266C29.2061 4.65527 29.9999 5.44928 29.9999 6.42867L30 23.5712Z" fill="#40AA54"/>
<path d="M30 8.67969H0V12.899H30V8.67969Z" fill="white"/>
<path d="M30 12.8994H0V15.5101H30V12.8994Z" fill="#DADADA"/>
<path opacity="0.15" d="M1.26076 23.5712V6.42867C1.26076 5.44922 2.05482 4.65527 3.03422 4.65527H1.77328C0.793945 4.65527 0 5.44934 0 6.42867V23.5712C0 24.5506 0.793945 25.3446 1.77334 25.3446H3.03428C2.05488 25.3446 1.26076 24.5505 1.26076 23.5712Z" fill="#202121"/>
<path d="M21.9691 20.4021C21.9691 19.5221 22.3746 18.737 23.0087 18.2228C22.5266 17.832 21.9127 17.5977 21.2438 17.5977C19.695 17.5977 18.4395 18.8532 18.4395 20.4021C18.4395 21.9509 19.695 23.2065 21.2438 23.2065C21.9127 23.2065 22.5267 22.9722 23.0087 22.5813C22.3745 22.0672 21.9691 21.282 21.9691 20.4021Z" fill="#EA001B"/>
<path d="M24.7755 17.5977C24.1067 17.5977 23.4927 17.832 23.0107 18.2228C23.645 18.737 24.0503 19.5221 24.0503 20.4021C24.0503 21.282 23.6449 22.0672 23.0107 22.5813C23.4928 22.9721 24.1067 23.2065 24.7755 23.2065C26.3245 23.2065 27.58 21.9509 27.58 20.4021C27.58 18.8532 26.3245 17.5977 24.7755 17.5977Z" fill="#F79F1A"/>
<path d="M24.0498 20.4019C24.0498 19.522 23.6444 18.7368 23.0103 18.2227C22.3762 18.7368 21.9707 19.522 21.9707 20.4019C21.9707 21.2819 22.3762 22.0671 23.0103 22.5812C23.6445 22.0671 24.0498 21.2819 24.0498 20.4019Z" fill="#FF5F01"/>
<path d="M9.37836 18.9089H3.24793C2.97775 18.9089 2.75879 18.69 2.75879 18.4198C2.75879 18.1496 2.9777 17.9307 3.24793 17.9307H9.37836C9.64854 17.9307 9.8675 18.1496 9.8675 18.4198C9.8675 18.69 9.64854 18.9089 9.37836 18.9089Z" fill="white"/>
<path d="M9.37836 20.9421H3.24793C2.97775 20.9421 2.75879 20.7232 2.75879 20.453C2.75879 20.1828 2.9777 19.9639 3.24793 19.9639H9.37836C9.64854 19.9639 9.8675 20.1828 9.8675 20.453C9.8675 20.7232 9.64854 20.9421 9.37836 20.9421Z" fill="white"/>
<path d="M9.37836 22.9744H3.24793C2.97775 22.9744 2.75879 22.7555 2.75879 22.4852C2.75879 22.2151 2.9777 21.9961 3.24793 21.9961H9.37836C9.64854 21.9961 9.8675 22.215 9.8675 22.4852C9.8675 22.7554 9.64854 22.9744 9.37836 22.9744Z" fill="white"/>
</svg>
