<svg width="24" height="26" viewBox="0 0 24 26" fill="none" xmlns="http://www.w3.org/2000/svg">
<path d="M2.3999 1.7998V0.899805C1.90285 0.899805 1.4999 1.30275 1.4999 1.7998L2.3999 1.7998ZM21.5999 1.7998H22.4999C22.4999 1.30275 22.097 0.899805 21.5999 0.899805V1.7998ZM21.5999 24.1998L21.1974 25.0048C21.4764 25.1443 21.8077 25.1294 22.0731 24.9654C22.3384 24.8014 22.4999 24.5117 22.4999 24.1998H21.5999ZM18.3999 22.5998L18.8024 21.7948C18.549 21.6681 18.2508 21.6681 17.9974 21.7948L18.3999 22.5998ZM15.1999 24.1998L14.7974 25.0048C15.0508 25.1315 15.349 25.1315 15.6024 25.0048L15.1999 24.1998ZM11.9999 22.5998L12.4024 21.7948C12.149 21.6681 11.8508 21.6681 11.5974 21.7948L11.9999 22.5998ZM8.7999 24.1998L8.39741 25.0048C8.65078 25.1315 8.94902 25.1315 9.20239 25.0048L8.7999 24.1998ZM2.3999 24.1998H1.4999C1.4999 24.5117 1.66141 24.8014 1.92674 24.9654C2.19208 25.1294 2.52341 25.1443 2.80239 25.0048L2.3999 24.1998ZM5.5999 22.5998L6.00239 21.7948C5.74902 21.6681 5.45078 21.6681 5.19741 21.7948L5.5999 22.5998ZM2.3999 2.6998H21.5999V0.899805H2.3999V2.6998ZM20.6999 1.7998V24.1998H22.4999V1.7998H20.6999ZM22.0024 23.3948L18.8024 21.7948L17.9974 23.4048L21.1974 25.0048L22.0024 23.3948ZM17.9974 21.7948L14.7974 23.3948L15.6024 25.0048L18.8024 23.4048L17.9974 21.7948ZM15.6024 23.3948L12.4024 21.7948L11.5974 23.4048L14.7974 25.0048L15.6024 23.3948ZM11.5974 21.7948L8.39741 23.3948L9.20239 25.0048L12.4024 23.4048L11.5974 21.7948ZM3.2999 24.1998V1.7998H1.4999V24.1998H3.2999ZM9.20239 23.3948L6.00239 21.7948L5.19741 23.4048L8.39741 25.0048L9.20239 23.3948ZM5.19741 21.7948L1.99741 23.3948L2.80239 25.0048L6.00239 23.4048L5.19741 21.7948ZM6.3999 9.0998H9.5999V7.2998H6.3999V9.0998ZM12.7999 9.0998H17.5999V7.2998H12.7999V9.0998ZM6.3999 13.8998H9.5999V12.0998H6.3999V13.8998ZM12.7999 13.8998H17.5999V12.0998H12.7999V13.8998ZM12.7999 18.6998H17.5999V16.8998H12.7999V18.6998Z" fill="#16162E" fill-opacity="0.4"/>
</svg>
