<svg width="24" height="24" viewBox="0 0 24 24" fill="none" xmlns="http://www.w3.org/2000/svg">
<g clip-path="url(#clip0_549_30)">
<path d="M23.9999 4.11522C23.9999 4.1126 23.9996 4.10997 23.9995 4.1073C23.9992 4.09685 23.9986 4.08653 23.9974 4.07631C23.9969 4.07256 23.9962 4.06881 23.9957 4.06506C23.9943 4.05564 23.9925 4.04636 23.9904 4.03727C23.9895 4.03366 23.9886 4.0301 23.9876 4.02649C23.9849 4.0166 23.9818 4.00689 23.9782 3.99733C23.9776 3.9955 23.9771 3.99363 23.9764 3.99185L23.0228 1.55051C22.9266 1.30451 22.6938 1.14551 22.4297 1.14551H20.6932C20.504 1.14551 20.3505 1.29893 20.3505 1.48821C20.3505 1.67749 20.504 1.83091 20.6932 1.83091H22.3965L23.1554 3.77383H15.9801L15.5305 1.83091H18.1805C18.3698 1.83091 18.5232 1.67749 18.5232 1.48821C18.5232 1.29893 18.3698 1.14551 18.1805 1.14551H15.0995H11.6463H4.31607C4.05189 1.14551 3.81911 1.30451 3.72297 1.5506L2.7693 3.99185C2.76859 3.99367 2.76822 3.99555 2.76751 3.99733C2.76395 4.00685 2.76086 4.01655 2.75814 4.02649C2.75715 4.0301 2.75622 4.03366 2.75537 4.03727C2.75322 4.04641 2.75148 4.05569 2.75008 4.06506C2.74951 4.06881 2.74881 4.07256 2.74834 4.07631C2.74717 4.08653 2.74651 4.09685 2.74623 4.1073C2.74619 4.10992 2.74586 4.11255 2.74581 4.11522C2.74581 4.11564 2.74576 4.11606 2.74576 4.11649V9.15132C2.74576 9.3406 2.89919 9.49402 3.08847 9.49402C3.27775 9.49402 3.43117 9.3406 3.43117 9.15132V4.45924H10.6955V9.66835C10.6955 9.87207 10.8155 10.0577 11.0012 10.1413C11.0692 10.1719 11.1417 10.1868 11.2136 10.1868C11.3381 10.1868 11.4613 10.1421 11.5578 10.0565L13.3729 8.44853L15.1879 10.0565C15.3403 10.1916 15.5588 10.2248 15.7446 10.1413C15.9303 10.0576 16.0503 9.87207 16.0503 9.66835V4.45924H23.3146V19.8306C23.3146 20.0765 23.1145 20.2766 22.8686 20.2766H16.5848C16.5848 20.2727 16.5844 20.2688 16.5843 20.2649C16.5839 20.2342 16.5828 20.2035 16.5802 20.173C17.1702 20.3294 17.8006 20.0262 18.0371 19.4464C18.1614 19.1413 18.1596 18.8062 18.0319 18.5026C18.0198 18.474 18.0065 18.4463 17.9926 18.419C17.99 18.4139 17.9875 18.4089 17.9849 18.4039C17.9712 18.3778 17.9566 18.3524 17.9412 18.3276C17.9382 18.3228 17.9351 18.3181 17.932 18.3133C17.9157 18.2878 17.8988 18.2629 17.8807 18.2388C17.8804 18.2383 17.88 18.2379 17.8797 18.2375C17.8618 18.2137 17.8429 18.1909 17.8233 18.1685C17.8198 18.1644 17.8162 18.1603 17.8126 18.1562C17.7933 18.1347 17.7732 18.1138 17.7523 18.0937C17.7483 18.0898 17.7441 18.086 17.74 18.0821C17.7182 18.0616 17.6959 18.0417 17.6727 18.0229C17.6719 18.0223 17.6711 18.0217 17.6703 18.0211C17.6474 18.0027 17.6236 17.9852 17.5994 17.9684C17.595 17.9654 17.5907 17.9623 17.5863 17.9593C17.562 17.943 17.5372 17.9276 17.5117 17.9129C17.5096 17.9117 17.5077 17.9103 17.5055 17.9091C17.6503 17.7837 17.7647 17.6251 17.8391 17.4426C17.9635 17.1375 17.9616 16.8024 17.8339 16.4988C17.7222 16.2331 17.5257 16.0195 17.2741 15.8869C17.2381 15.868 17.201 15.8507 17.1629 15.8352L11.8292 13.6603L14.312 12.8918C14.9026 12.709 15.2353 12.079 15.0535 11.4876C14.9857 11.2668 14.8512 11.0806 14.6775 10.9445C14.419 10.742 14.0735 10.6505 13.7308 10.7225C13.7292 10.7228 13.7276 10.7231 13.7259 10.7236C13.7069 10.7278 11.8036 11.1558 9.81581 11.5434C9.72764 11.5606 9.64172 11.5772 9.55702 11.5935C9.48923 11.6065 9.42239 11.6194 9.35681 11.6318C9.33797 11.6355 9.31908 11.639 9.30038 11.6426C9.1846 11.6646 9.07242 11.6856 8.96339 11.7059C8.91952 11.714 8.87602 11.7221 8.83322 11.73C6.3368 12.1898 5.63551 12.1981 5.44088 12.1718C5.44013 12.1717 5.43948 12.1716 5.43873 12.1714C5.43577 12.171 5.43287 12.1706 5.43015 12.1702C5.42818 12.1698 5.42635 12.1695 5.42452 12.1692C5.42321 12.169 5.42181 12.1688 5.42054 12.1686C5.4084 12.1664 5.39893 12.1641 5.39162 12.1619L5.33546 12.139L5.40545 11.9674C5.47426 11.7986 5.47323 11.6132 5.40259 11.4452C5.38492 11.4032 5.3634 11.3636 5.33846 11.3266C5.26365 11.2159 5.15785 11.1296 5.03129 11.078L3.19061 10.3275C3.0219 10.2586 2.83642 10.2597 2.66847 10.3304C2.50047 10.401 2.37011 10.5329 2.3013 10.7016L0.0505039 16.2217C-0.0915271 16.57 0.076332 16.9689 0.424659 17.111L2.26539 17.8616C2.34944 17.8958 2.43639 17.9121 2.52203 17.9121C2.79123 17.9121 3.04689 17.7516 3.15465 17.4874L3.17158 17.4459L3.59598 17.6189C3.59622 17.619 3.59645 17.6192 3.59673 17.6193C4.00267 17.7848 4.37668 18.0209 4.7004 18.314C4.75928 18.3673 4.81646 18.4225 4.87192 18.4794C4.92737 18.5364 4.98099 18.5952 5.03279 18.6556C5.05867 18.6859 5.08412 18.7166 5.10901 18.7476C5.58071 19.3358 6.19909 19.7972 6.89719 20.0819L7.37466 20.2766H3.87723C3.63133 20.2766 3.43122 20.0765 3.43122 19.8305V18.9634C3.43122 18.7741 3.27779 18.6207 3.08851 18.6207C2.89923 18.6207 2.74581 18.7741 2.74581 18.9634V19.8305C2.74581 20.4544 3.25333 20.962 3.87723 20.962H9.05564L13.4704 22.7621C13.6223 22.824 13.7796 22.8534 13.9344 22.8534C14.4209 22.8534 14.883 22.5635 15.0778 22.0858C15.1576 21.89 15.1833 21.6852 15.1618 21.4884C15.3914 21.5213 15.6295 21.4911 15.8453 21.3979C16.0646 21.3032 16.2464 21.1523 16.3755 20.9619H22.8686C23.4925 20.9619 24 20.4544 24 19.8305V4.11653C24 4.11606 23.9999 4.11569 23.9999 4.11522ZM11.9188 1.83091H14.827L15.2766 3.77383H11.4692L11.9188 1.83091ZM10.7657 3.77383H3.59031L4.34926 1.83091H11.2153L10.7657 3.77383ZM15.365 9.29762H15.365L13.7167 7.83746C13.6187 7.75065 13.4958 7.70725 13.373 7.70725C13.2501 7.70725 13.1271 7.75065 13.0291 7.83746L11.3809 9.29762V4.45924H15.365V9.29762ZM2.52119 17.2257L0.686362 16.4775L2.93476 10.9634L4.76959 11.7116L2.52119 17.2257ZM16.2126 19.2938L15.8193 19.1334C15.8191 19.1333 15.8189 19.1333 15.8188 19.1332C15.8186 19.1331 15.8185 19.1331 15.8183 19.133C15.8183 19.133 15.8182 19.133 15.8182 19.133L11.722 17.4628C11.5468 17.3913 11.3467 17.4754 11.2753 17.6507C11.2038 17.826 11.2879 18.026 11.4632 18.0975L15.5595 19.7677C15.5766 19.7747 15.5932 19.7825 15.6092 19.7909C15.6137 19.7933 15.6178 19.7962 15.6223 19.7987C15.6335 19.8051 15.6448 19.8115 15.6554 19.8186C15.6606 19.822 15.6652 19.8259 15.6702 19.8295C15.6796 19.8362 15.6892 19.8429 15.6981 19.8502C15.7035 19.8546 15.7084 19.8595 15.7136 19.8641C15.7216 19.8712 15.7297 19.878 15.7372 19.8855C15.7424 19.8907 15.7471 19.8964 15.7521 19.9017C15.7589 19.9091 15.766 19.9164 15.7725 19.9242C15.7774 19.9301 15.7817 19.9364 15.7864 19.9426C15.7923 19.9503 15.7984 19.9578 15.8038 19.9658C15.8083 19.9724 15.8122 19.9795 15.8164 19.9863C15.8213 19.9941 15.8264 20.0019 15.8309 20.01C15.8349 20.0173 15.8383 20.0249 15.842 20.0324C15.8459 20.0404 15.8502 20.0483 15.8538 20.0565C15.8572 20.0644 15.86 20.0725 15.863 20.0805C15.8661 20.0886 15.8695 20.0966 15.8722 20.1049C15.8749 20.1132 15.877 20.1216 15.8793 20.13C15.8816 20.1383 15.8841 20.1465 15.8861 20.1549C15.888 20.1634 15.8892 20.172 15.8908 20.1805C15.8923 20.189 15.8941 20.1975 15.8952 20.2061C15.8963 20.2147 15.8968 20.2235 15.8975 20.2321C15.8982 20.2408 15.8992 20.2495 15.8995 20.2582C15.8998 20.2668 15.8993 20.2755 15.8992 20.2841C15.8991 20.293 15.8993 20.3019 15.8987 20.3109C15.8982 20.3194 15.8969 20.3278 15.896 20.3363C15.895 20.3455 15.8943 20.3546 15.8928 20.3637C15.8914 20.372 15.8893 20.3803 15.8876 20.3887C15.8856 20.3979 15.884 20.4072 15.8815 20.4163C15.8793 20.4245 15.8764 20.4325 15.8738 20.4406C15.8709 20.4498 15.8683 20.459 15.8648 20.468C15.8619 20.4742 15.8591 20.4805 15.8564 20.4868C15.8558 20.4883 15.8555 20.4898 15.8549 20.4912C15.8014 20.6148 15.7026 20.713 15.5735 20.7688C15.4315 20.83 15.2689 20.8322 15.1273 20.7744L14.4015 20.4785C14.3982 20.4771 14.3947 20.4762 14.3914 20.4749C14.3879 20.4734 14.3847 20.4716 14.3812 20.4702L11.0496 19.1117C10.8742 19.0403 10.6743 19.1244 10.6028 19.2997C10.5314 19.475 10.6155 19.675 10.7908 19.7465L14.1224 21.1049C14.126 21.1064 14.1296 21.1074 14.1332 21.1087C14.1365 21.1101 14.1395 21.1119 14.1428 21.1132C14.4224 21.2272 14.5572 21.5475 14.4432 21.8271C14.3291 22.1068 14.009 22.2416 13.7293 22.1275L9.25294 20.3023C9.25275 20.3022 9.25256 20.3021 9.25238 20.302L7.15613 19.4472C6.78713 19.2967 6.44448 19.0879 6.14199 18.831C5.96049 18.6768 5.79348 18.5054 5.64385 18.3188C5.49643 18.135 5.33471 17.9636 5.16071 17.8061C4.77789 17.4595 4.33562 17.1803 3.85567 16.9845C3.85562 16.9845 3.85557 16.9845 3.85553 16.9845L3.43056 16.8112L4.27698 14.7354L5.07685 12.7737L5.13587 12.7978C5.19142 12.8204 5.27063 12.8526 5.48382 12.8606C5.75016 12.8727 6.19079 12.8449 6.98016 12.7334C7.51711 12.6575 8.17575 12.5478 8.94464 12.4064C8.96358 12.4029 8.98238 12.3994 9.0015 12.3959C9.03746 12.3893 9.07378 12.3825 9.11025 12.3758C9.13861 12.3705 9.16711 12.3652 9.19585 12.3598C9.22856 12.3536 9.26142 12.3475 9.29452 12.3413C9.32963 12.3346 9.36516 12.3279 9.40088 12.3211C9.42947 12.3157 9.45802 12.3103 9.48689 12.3048C9.53044 12.2965 9.57474 12.288 9.61917 12.2795C9.64205 12.2751 9.66469 12.2708 9.68775 12.2664C9.75581 12.2533 9.82477 12.24 9.89499 12.2263C11.876 11.841 13.788 11.4121 13.8739 11.3928C13.8825 11.3911 13.8911 11.39 13.8996 11.3888C14.1198 11.3562 14.3354 11.4835 14.3986 11.6889C14.4208 11.7611 14.4233 11.8347 14.4094 11.904C14.3787 12.0565 14.2679 12.1881 14.1095 12.2371L10.7119 13.2886C10.5735 13.3315 10.4771 13.4565 10.4708 13.6012C10.4646 13.7458 10.5498 13.8787 10.6838 13.9334L16.9043 16.4699C17.0398 16.5251 17.1456 16.6297 17.2024 16.7646C17.2591 16.8995 17.2599 17.0483 17.2047 17.1838C17.1494 17.3192 17.0448 17.4251 16.9099 17.4818C16.8425 17.5101 16.7716 17.5244 16.7006 17.5249C16.6995 17.5249 16.6985 17.5247 16.6975 17.5247C16.6808 17.5247 16.6641 17.5241 16.6475 17.5225C16.6426 17.5221 16.6377 17.521 16.6328 17.5205C16.6201 17.5189 16.6074 17.5175 16.5948 17.515C16.5868 17.5135 16.5789 17.5111 16.571 17.5093C16.5615 17.507 16.552 17.5051 16.5426 17.5023C16.5329 17.4995 16.5234 17.4957 16.5139 17.4922C16.5063 17.4895 16.4985 17.4873 16.491 17.4842L12.3944 15.8138C12.2191 15.7423 12.0191 15.8264 11.9476 16.0018C11.8762 16.177 11.9603 16.377 12.1356 16.4485L17.1022 18.4737C17.1361 18.4874 17.1681 18.5044 17.198 18.5241C17.2876 18.5831 17.3578 18.6673 17.4003 18.7684C17.4499 18.8864 17.4568 19.0151 17.4207 19.1362C17.4155 19.1535 17.4095 19.1706 17.4026 19.1876C17.3954 19.2051 17.3875 19.222 17.3788 19.2383C17.3586 19.2763 17.334 19.3106 17.3066 19.3418C17.2895 19.3612 17.2713 19.3793 17.2519 19.3959C17.2488 19.3986 17.246 19.4016 17.2428 19.4041C17.1178 19.5064 16.9506 19.5503 16.7872 19.5173C16.7541 19.5106 16.7211 19.5011 16.6887 19.4879L16.2126 19.2938Z" fill="white" stroke="white" stroke-width="0.4"/>
</g>
<defs>
<clipPath id="clip0_549_30">
<rect width="24" height="24" fill="white"/>
</clipPath>
</defs>
</svg>
