<svg width="24" height="26" viewBox="0 0 24 26" fill="none" xmlns="http://www.w3.org/2000/svg">
<path d="M11.7165 23.6248H5.45671C3.75552 23.6248 2.37521 22.2394 2.37521 20.5433V5.45671C2.37521 3.75552 3.76061 2.37521 5.45671 2.37521H11.8183C12.2003 2.37521 12.5059 2.06961 12.5059 1.68761C12.5059 1.3056 12.2003 1 11.8183 1H5.45671C2.9966 1 1 3.0017 1 5.45671V20.5433C1 23.0034 3.0017 25 5.45671 25H11.7165C12.0985 25 12.4041 24.6944 12.4041 24.3124C12.4041 23.9304 12.0934 23.6248 11.7165 23.6248Z" fill="#16162E" stroke="#16162E" stroke-width="0.8"/>
<path d="M23.0444 12.5159L18.6743 8.14582C18.4043 7.87587 17.9714 7.87587 17.7014 8.14582C17.4315 8.41577 17.4315 8.84871 17.7014 9.11866L20.9001 12.3173H6.94932C6.56732 12.3173 6.26172 12.6229 6.26172 13.0049C6.26172 13.3869 6.56732 13.6925 6.94932 13.6925H20.9001L17.7014 16.8912C17.4315 17.1611 17.4315 17.594 17.7014 17.864C17.8339 17.9964 18.0121 18.0677 18.1853 18.0677C18.3585 18.0677 18.5368 18.0015 18.6692 17.864L23.0393 13.4939C23.3144 13.2188 23.3144 12.7808 23.0444 12.5159Z" fill="#40AA54" stroke="#40AA54" stroke-width="0.8"/>
</svg>
