<svg width="19" height="25" viewBox="0 0 19 25" fill="none" xmlns="http://www.w3.org/2000/svg">
<path d="M8.8985 18.2527L8.35715 17.5337L8.8985 18.2527ZM18.9 22.1951V2.79982H17.1V22.1951H18.9ZM0.1 2.79981V22.1951H1.9V2.79981H0.1ZM3.14285 23.713L9.43985 18.9717L8.35715 17.5337L2.06015 22.275L3.14285 23.713ZM9.56015 18.9717L15.8571 23.713L16.9398 22.275L10.6429 17.5337L9.56015 18.9717ZM17 0.899821L2 0.899806L2 2.69981L17 2.69982L17 0.899821ZM9.43985 18.9717C9.47547 18.9449 9.52453 18.9449 9.56015 18.9717L10.6429 17.5337C9.96614 17.0242 9.03386 17.0242 8.35715 17.5337L9.43985 18.9717ZM0.1 22.1951C0.1 23.7624 1.89076 24.6557 3.14285 23.713L2.06015 22.275C2.03625 22.293 2.02027 22.296 2.00972 22.2967C1.99552 22.2977 1.97606 22.2949 1.95536 22.2846C1.93467 22.2743 1.92071 22.2604 1.91297 22.2485C1.90722 22.2396 1.9 22.225 1.9 22.1951H0.1ZM1.9 2.79981C1.9 2.74458 1.94477 2.69981 2 2.69981L2 0.899806C0.95066 0.899805 0.1 1.75046 0.1 2.79981H1.9ZM18.9 2.79982C18.9 1.75048 18.0493 0.899822 17 0.899821L17 2.69982C17.0552 2.69982 17.1 2.74459 17.1 2.79982H18.9ZM17.1 22.1951C17.1 22.225 17.0928 22.2396 17.087 22.2485C17.0793 22.2604 17.0653 22.2743 17.0446 22.2846C17.0239 22.2949 17.0045 22.2977 16.9903 22.2967C16.9797 22.296 16.9638 22.293 16.9398 22.275L15.8571 23.713C17.1092 24.6557 18.9 23.7624 18.9 22.1951H17.1Z" fill="#16162E" fill-opacity="0.4"/>
</svg>
