<svg width="24" height="24" viewBox="0 0 24 24" fill="none" xmlns="http://www.w3.org/2000/svg">
<path d="M0.799805 0.799805L1.7598 3.9998M1.7598 3.9998L5.5998 16.7998H23.1998V7.1998C23.1998 5.43249 21.7671 3.9998 19.9998 3.9998H1.7598ZM19.9998 23.1998C19.1161 23.1998 18.3998 22.4835 18.3998 21.5998C18.3998 20.7161 19.1161 19.9998 19.9998 19.9998C20.8835 19.9998 21.5998 20.7161 21.5998 21.5998C21.5998 22.4835 20.8835 23.1998 19.9998 23.1998ZM7.1998 21.5998C7.1998 20.7161 7.91615 19.9998 8.7998 19.9998C9.68346 19.9998 10.3998 20.7161 10.3998 21.5998C10.3998 22.4835 9.68346 23.1998 8.7998 23.1998C7.91615 23.1998 7.1998 22.4835 7.1998 21.5998Z" stroke="#16162E" stroke-width="1.5"/>
</svg>
