<svg width="24" height="24" viewBox="0 0 24 24" fill="none" xmlns="http://www.w3.org/2000/svg">
<g clip-path="url(#clip0_660_306)">
<ellipse cx="4.5" cy="18" rx="2.5" ry="2" fill="#40AA54"/>
<ellipse cx="19.5" cy="18" rx="2.5" ry="2" fill="#40AA54"/>
<path d="M23.1853 11.086L21.551 10.3788L20.1633 7.67819C19.7882 6.93875 19.0273 6.47794 18.1968 6.4833H15.807V5.80816C15.807 4.58648 14.8318 3.58984 13.6101 3.58984H2.18631C0.964629 3.58984 0.000142572 4.59184 0.000142572 5.80816V16.1496C-0.0105739 16.8944 0.584192 17.5052 1.32899 17.5159C1.33435 17.5159 1.33971 17.5159 1.35042 17.5159H1.63441C1.63441 17.5695 1.62905 17.591 1.62905 17.6231C1.62369 19.1556 2.86145 20.404 4.39391 20.4094C5.92637 20.4148 7.17485 19.177 7.18021 17.6445C7.18021 17.6338 7.18021 17.6285 7.18021 17.6178C7.18021 17.5802 7.1802 17.5642 7.17485 17.5106H16.4071C16.4071 17.5642 16.4071 17.5856 16.4071 17.6178C16.4018 19.1502 17.6395 20.3987 19.172 20.404C20.7044 20.4094 21.9529 19.1716 21.9583 17.6392C21.9583 17.6285 21.9583 17.6231 21.9583 17.6124C21.9583 17.5749 21.9583 17.5588 21.9583 17.5052H22.6495C23.3943 17.5052 23.9998 16.8997 23.9998 16.155C23.9998 16.1496 23.9998 16.1442 23.9998 16.1335V12.3292C24.0105 11.804 23.689 11.3057 23.1853 11.086ZM4.40999 19.3431C3.46693 19.3431 2.70606 18.5822 2.70606 17.6392C2.70606 16.6961 3.46693 15.9353 4.40999 15.9353C5.35304 15.9353 6.11391 16.6961 6.11391 17.6392C6.11391 18.5769 5.34768 19.3431 4.40999 19.3431ZM14.7353 16.455H6.92301C6.47292 15.4745 5.487 14.8475 4.40999 14.8529C3.32762 14.8475 2.34706 15.4691 1.89696 16.455H1.35042C1.18432 16.455 1.07179 16.3264 1.07179 16.1603V13.4008H14.7353V16.455ZM14.7353 5.81352V12.3292H1.07179V5.81352C1.07179 5.1866 1.55939 4.66685 2.18631 4.66685H13.6101C14.237 4.67221 14.7407 5.1866 14.7353 5.80816V5.81352ZM15.807 7.56031H18.1968C18.6201 7.55495 19.0166 7.78536 19.2148 8.16579L20.2865 10.2394H15.807V7.56031ZM19.1881 19.3431C18.245 19.3431 17.4841 18.5822 17.4841 17.6392C17.4841 16.6961 18.245 15.9353 19.1881 15.9353C20.1311 15.9353 20.892 16.6961 20.892 17.6392C20.892 18.5769 20.1311 19.3431 19.1881 19.3431ZM22.9335 16.1603C22.9335 16.3264 22.821 16.455 22.6548 16.455H21.7011C21.0527 15.0672 19.4024 14.4671 18.0146 15.1155C17.4252 15.3887 16.9483 15.8656 16.675 16.455H15.807V11.3111H21.0581L22.762 12.0612C22.8692 12.1148 22.9388 12.2327 22.9335 12.3506V16.1603Z" fill="#16162E" stroke="#16162E" stroke-width="0.3"/>
</g>
<defs>
<clipPath id="clip0_660_306">
<rect width="24" height="24" fill="white"/>
</clipPath>
</defs>
</svg>
