<svg width="60" height="60" viewBox="0 0 60 60" fill="none" xmlns="http://www.w3.org/2000/svg">
<g clip-path="url(#clip0_545_115)">
<path d="M59.4985 29.9997C59.4985 46.292 46.291 59.4995 29.9988 59.4995C13.7065 59.4995 0.499023 46.292 0.499023 29.9997C0.499023 13.7075 13.7065 0.5 29.9988 0.5C46.291 0.5 59.4985 13.7075 59.4985 29.9997Z" stroke="#55ACEE"/>
<path d="M44.999 20.8863C43.8956 21.3756 42.7086 21.7065 41.4637 21.8543C42.7347 21.0928 43.7101 19.8879 44.1705 18.4498C42.9812 19.1553 41.6634 19.6671 40.262 19.943C39.1393 18.7473 37.5396 18 35.7683 18C32.3698 18 29.6135 20.7564 29.6135 24.1549C29.6135 24.6373 29.6681 25.1069 29.7736 25.5576C24.6584 25.301 20.123 22.8508 17.0871 19.126C16.5574 20.0348 16.2535 21.0928 16.2535 22.2206C16.2535 24.3555 17.3409 26.2402 18.9915 27.3436C17.983 27.3119 17.0334 27.0352 16.2039 26.5729C16.2035 26.5991 16.2035 26.6253 16.2035 26.651C16.2035 29.6332 18.3259 32.1205 21.141 32.6856C20.6251 32.827 20.0803 32.9018 19.5198 32.9018C19.1223 32.9018 18.7372 32.8637 18.3617 32.7921C19.1448 35.2368 21.4174 37.0163 24.1113 37.0664C22.0044 38.7174 19.3509 39.7011 16.4665 39.7011C15.9707 39.7011 15.4796 39.6722 14.999 39.6148C17.7214 41.3618 20.9574 42.3803 24.4331 42.3803C35.7541 42.3803 41.9452 33.0018 41.9452 24.8677C41.9452 24.601 41.9393 24.3353 41.9273 24.0718C43.1308 23.2043 44.1742 22.1205 44.999 20.8863Z" fill="#55ACEE"/>
</g>
<defs>
<clipPath id="clip0_545_115">
<rect width="60" height="60" fill="white"/>
</clipPath>
</defs>
</svg>
