<svg width="22" height="24" viewBox="0 0 22 24" fill="none" xmlns="http://www.w3.org/2000/svg">
<path d="M7 1L11 1.5L15 1V4H7V1Z" fill="#40AA54"/>
<path d="M20.0234 4.124H15.0366C15.6904 3.10095 15.6 1.67967 14.764 0.767675C13.8258 -0.255892 12.2992 -0.255892 11.3611 0.767675C11.2558 0.882572 11.13 1.04894 11 1.33034C10.8701 1.04894 10.7443 0.882572 10.639 0.767675C9.70084 -0.255892 8.17429 -0.255892 7.23611 0.767675C6.40015 1.67967 6.30975 3.1009 6.96352 4.124H1.97656C0.886703 4.124 0 5.09136 0 6.28036V7.96794C0 8.92818 0.578402 9.74352 1.375 10.0218V21.8436C1.375 23.0326 2.2617 24 3.35156 24H9.625H12.375H18.6484C19.7383 24 20.625 23.0326 20.625 21.8436V10.0218C21.4216 9.74347 22 8.92813 22 7.96794V6.28036C22 5.09136 21.1133 4.124 20.0234 4.124ZM11.6875 8.62423H10.3125V5.62408H11.6875V8.62423ZM11.8492 3.48909C12.0616 2.1566 12.3061 1.85804 12.3333 1.82837C12.5344 1.60903 12.7985 1.49938 13.0625 1.49938C13.3266 1.49938 13.5907 1.60903 13.7918 1.82837C14.1938 2.26705 14.1938 2.98076 13.7918 3.41943C13.7647 3.44892 13.4927 3.7142 12.2806 3.94544C12.1041 3.9791 11.9319 4.00728 11.7731 4.03057C11.794 3.86125 11.8192 3.67773 11.8492 3.48909ZM8.20828 1.82837C8.40933 1.60903 8.67341 1.49938 8.9375 1.49938C9.20159 1.49938 9.46567 1.60903 9.66672 1.82837C9.69375 1.85786 9.93691 2.15464 10.1489 3.477C10.1797 3.66948 10.2056 3.85736 10.2269 4.03067C10.0717 4.00784 9.90344 3.98037 9.73057 3.94755C8.50919 3.71589 8.23552 3.44911 8.20832 3.41943C7.80622 2.9808 7.80622 2.26705 8.20828 1.82837ZM1.375 6.28036C1.375 5.91847 1.64484 5.62408 1.97656 5.62408H8.9375V8.62423H2.0625H1.97656C1.64484 8.62423 1.375 8.32984 1.375 7.96794V6.28036ZM2.75 21.8436V10.1243H8.9375V22.4999H3.35156C3.01984 22.4999 2.75 22.2055 2.75 21.8436ZM10.3125 22.4999V10.1243H11.6875V22.4999H10.3125ZM19.25 21.8436C19.25 22.2055 18.9802 22.4999 18.6484 22.4999H13.0625V10.1243H19.25V21.8436ZM20.625 7.96794C20.625 8.32984 20.3552 8.62423 20.0234 8.62423H19.9375H13.0625V5.62408H20.0234C20.3552 5.62408 20.625 5.91847 20.625 6.28036V7.96794Z" fill="#16162E"/>
<rect x="8.90039" y="10.0996" width="1.5" height="12.4" fill="#40AA54"/>
<rect x="11.7002" y="10.0996" width="1.5" height="12.4" fill="#40AA54"/>
</svg>
